<?xml version="1.0" encoding="UTF-8" standalone="no"?>
<!-- Created with Inkscape (http://www.inkscape.org/) -->

<svg
   xmlns:dc="http://purl.org/dc/elements/1.1/"
   xmlns:cc="http://creativecommons.org/ns#"
   xmlns:rdf="http://www.w3.org/1999/02/22-rdf-syntax-ns#"
   xmlns:svg="http://www.w3.org/2000/svg"
   xmlns="http://www.w3.org/2000/svg"
   xmlns:xlink="http://www.w3.org/1999/xlink"
   xmlns:sodipodi="http://sodipodi.sourceforge.net/DTD/sodipodi-0.dtd"
   xmlns:inkscape="http://www.inkscape.org/namespaces/inkscape"
   inkscape:export-ydpi="30"
   inkscape:export-xdpi="30"
   inkscape:export-filename="/home/janek/Localhost/customers/~apf/draft/img/illustrations/Package-1.14.png"
   width="600"
   height="450"
   id="svg3286"
   sodipodi:version="0.32"
   inkscape:version="0.48.4 r9939"
   version="1.0"
   sodipodi:docname="Package-1.17.svg"
   inkscape:output_extension="org.inkscape.output.svg.inkscape">
  <sodipodi:namedview
     id="base"
     pagecolor="#ffffff"
     bordercolor="#666666"
     borderopacity="1.0"
     inkscape:pageopacity="0.0"
     inkscape:pageshadow="2"
     inkscape:zoom="1.3588235"
     inkscape:cx="328.27349"
     inkscape:cy="227.79527"
     inkscape:document-units="px"
     inkscape:current-layer="layer1"
     showgrid="false"
     inkscape:window-width="2560"
     inkscape:window-height="1389"
     inkscape:window-x="1278"
     inkscape:window-y="28"
     inkscape:window-maximized="1" />
  <defs
     id="defs3288">
    <linearGradient
       id="linearGradient13474">
      <stop
         id="stop13476"
         offset="0"
         style="stop-color:#333333;stop-opacity:1;" />
      <stop
         id="stop13478"
         offset="1"
         style="stop-color:#000000;stop-opacity:1;" />
    </linearGradient>
    <filter
       color-interpolation-filters="sRGB"
       id="filter13453"
       inkscape:collect="always">
      <feGaussianBlur
         id="feGaussianBlur13455"
         stdDeviation="1.20375"
         inkscape:collect="always" />
    </filter>
    <inkscape:perspective
       id="perspective3294"
       inkscape:persp3d-origin="372.04724 : 350.78739 : 1"
       inkscape:vp_z="744.09448 : 526.18109 : 1"
       inkscape:vp_y="0 : 1000 : 0"
       inkscape:vp_x="0 : 526.18109 : 1"
       sodipodi:type="inkscape:persp3d" />
    <linearGradient
       inkscape:collect="always"
       xlink:href="#linearGradient13474"
       id="linearGradient4036"
       gradientUnits="userSpaceOnUse"
       gradientTransform="matrix(3.5189614,0,0,3.5189614,1291.9353,-2064.8921)"
       x1="-177.95744"
       y1="718.47571"
       x2="-175.2663"
       y2="741.31396" />
    <inkscape:perspective
       id="perspective4016"
       inkscape:persp3d-origin="0.5 : 0.33333333 : 1"
       inkscape:vp_z="1 : 0.5 : 1"
       inkscape:vp_y="0 : 1000 : 0"
       inkscape:vp_x="0 : 0.5 : 1"
       sodipodi:type="inkscape:persp3d" />
    <inkscape:perspective
       id="perspective4064"
       inkscape:persp3d-origin="0.5 : 0.33333333 : 1"
       inkscape:vp_z="1 : 0.5 : 1"
       inkscape:vp_y="0 : 1000 : 0"
       inkscape:vp_x="0 : 0.5 : 1"
       sodipodi:type="inkscape:persp3d" />
    <inkscape:perspective
       id="perspective4137"
       inkscape:persp3d-origin="0.5 : 0.33333333 : 1"
       inkscape:vp_z="1 : 0.5 : 1"
       inkscape:vp_y="0 : 1000 : 0"
       inkscape:vp_x="0 : 0.5 : 1"
       sodipodi:type="inkscape:persp3d" />
    <inkscape:perspective
       id="perspective4171"
       inkscape:persp3d-origin="0.5 : 0.33333333 : 1"
       inkscape:vp_z="1 : 0.5 : 1"
       inkscape:vp_y="0 : 1000 : 0"
       inkscape:vp_x="0 : 0.5 : 1"
       sodipodi:type="inkscape:persp3d" />
    <inkscape:perspective
       sodipodi:type="inkscape:persp3d"
       inkscape:vp_x="0 : 0.5 : 1"
       inkscape:vp_y="0 : 1000 : 0"
       inkscape:vp_z="1 : 0.5 : 1"
       inkscape:persp3d-origin="0.5 : 0.33333333 : 1"
       id="perspective2960" />
    <linearGradient
       y2="741.31396"
       x2="-175.2663"
       y1="718.47571"
       x1="-177.95744"
       gradientTransform="matrix(3.5189614,0,0,3.5189614,1291.9353,-2064.8921)"
       gradientUnits="userSpaceOnUse"
       id="linearGradient2986"
       xlink:href="#linearGradient13474"
       inkscape:collect="always" />
    <linearGradient
       y2="741.31396"
       x2="-175.2663"
       y1="718.47571"
       x1="-177.95744"
       gradientTransform="matrix(3.5189614,0,0,3.5189614,1291.9353,-2064.8921)"
       gradientUnits="userSpaceOnUse"
       id="linearGradient3007"
       xlink:href="#linearGradient13474"
       inkscape:collect="always" />
    <linearGradient
       y2="741.31396"
       x2="-175.2663"
       y1="718.47571"
       x1="-177.95744"
       gradientTransform="matrix(3.5189614,0,0,3.5189614,1291.9353,-2064.8921)"
       gradientUnits="userSpaceOnUse"
       id="linearGradient3026"
       xlink:href="#linearGradient13474"
       inkscape:collect="always" />
    <inkscape:perspective
       sodipodi:type="inkscape:persp3d"
       inkscape:vp_x="0 : 0.5 : 1"
       inkscape:vp_y="0 : 1000 : 0"
       inkscape:vp_z="1 : 0.5 : 1"
       inkscape:persp3d-origin="0.5 : 0.33333333 : 1"
       id="perspective4434" />
    <inkscape:perspective
       sodipodi:type="inkscape:persp3d"
       inkscape:vp_x="0 : 0.5 : 1"
       inkscape:vp_y="0 : 1000 : 0"
       inkscape:vp_z="1 : 0.5 : 1"
       inkscape:persp3d-origin="0.5 : 0.33333333 : 1"
       id="perspective4468" />
    <inkscape:perspective
       sodipodi:type="inkscape:persp3d"
       inkscape:vp_x="0 : 0.5 : 1"
       inkscape:vp_y="0 : 1000 : 0"
       inkscape:vp_z="1 : 0.5 : 1"
       inkscape:persp3d-origin="0.5 : 0.33333333 : 1"
       id="perspective4502" />
    <inkscape:perspective
       sodipodi:type="inkscape:persp3d"
       inkscape:vp_x="0 : 0.5 : 1"
       inkscape:vp_y="0 : 1000 : 0"
       inkscape:vp_z="1 : 0.5 : 1"
       inkscape:persp3d-origin="0.5 : 0.33333333 : 1"
       id="perspective3898" />
    <inkscape:perspective
       sodipodi:type="inkscape:persp3d"
       inkscape:vp_x="0 : 0.5 : 1"
       inkscape:vp_y="0 : 1000 : 0"
       inkscape:vp_z="1 : 0.5 : 1"
       inkscape:persp3d-origin="0.5 : 0.33333333 : 1"
       id="perspective3932" />
    <inkscape:perspective
       sodipodi:type="inkscape:persp3d"
       inkscape:vp_x="0 : 0.5 : 1"
       inkscape:vp_y="0 : 1000 : 0"
       inkscape:vp_z="1 : 0.5 : 1"
       inkscape:persp3d-origin="0.5 : 0.33333333 : 1"
       id="perspective2961" />
    <inkscape:perspective
       sodipodi:type="inkscape:persp3d"
       inkscape:vp_x="0 : 0.5 : 1"
       inkscape:vp_y="0 : 1000 : 0"
       inkscape:vp_z="1 : 0.5 : 1"
       inkscape:persp3d-origin="0.5 : 0.33333333 : 1"
       id="perspective2995" />
    <filter
       id="filter3999-57"
       inkscape:label="Torn edges"
       inkscape:menu="Distort"
       inkscape:menu-tooltip="Displace the outside of shapes and pictures without altering their content"
       height="1.4"
       y="-0.2"
       width="1.4"
       x="-0.2"
       color-interpolation-filters="sRGB">
      <feTurbulence
         id="feTurbulence4001-71"
         baseFrequency="0.2167832167832168"
         numOctaves="10"
         type="fractalNoise"
         result="result91"
         seed="0" />
      <feDisplacementMap
         yChannelSelector="A"
         id="feDisplacementMap4003-5"
         in2="result91"
         scale="12.146893"
         result="result5"
         xChannelSelector="R"
         in="SourceGraphic" />
      <feComposite
         id="feComposite4005-6"
         in2="result5"
         in="SourceGraphic"
         operator="atop" />
    </filter>
  </defs>
  <metadata
     id="metadata3291">
    <rdf:RDF>
      <cc:Work
         rdf:about="">
        <dc:format>image/svg+xml</dc:format>
        <dc:type
           rdf:resource="http://purl.org/dc/dcmitype/StillImage" />
        <dc:title />
      </cc:Work>
    </rdf:RDF>
  </metadata>
  <g
     transform="translate(-320.30844,-424.46268)"
     id="layer1"
     inkscape:groupmode="layer"
     inkscape:label="Ebene 1">
    <g
       transform="translate(-3.9999925,79.000007)"
       id="g2850">
      <path
         transform="matrix(3.0065641,0,0,3.0065641,215.82703,-2156.2771)"
         sodipodi:nodetypes="cccccccc"
         style="opacity:0.2;fill:#000000;fill-opacity:1;fill-rule:evenodd;stroke:#000000;stroke-width:1px;stroke-linecap:butt;stroke-linejoin:miter;stroke-opacity:1;filter:url(#filter13453)"
         d="M 169,978.5 126,978 87.023594,962.57386 80.344974,952.18858 42.5,942.5 l 93,-15 34.5,22.5 -1,28.5 z"
         id="path13447" />
      <path
         id="path8068"
         style="color:#000000;fill:url(#linearGradient3026);fill-opacity:1;fill-rule:evenodd;stroke:none;stroke-width:1px;marker:none;visibility:visible;display:inline;overflow:visible;enable-background:accumulate"
         d="m 488.32262,480.52147 239.16407,-17.1253 179.64909,1.75033 -178.62102,26.69462 -237.89644,54.80834 -2.2957,-66.12799 z"
         sodipodi:nodetypes="cccccc" />
      <g
         id="g8238"
         transform="matrix(3.5189614,0,0,3.5189614,1291.9353,-2064.8921)">
        <path
           style="color:#000000;fill:#594528;fill-opacity:1;fill-rule:evenodd;stroke:none;stroke-width:1px;marker:none;visibility:visible"
           d="m -199.76535,687.81955 -1.26562,-0.68947 -27.33786,36.08692 2.1386,0.0824 26.46488,-35.47981 z"
           id="path8139"
           sodipodi:nodetypes="ccccc" />
        <path
           sodipodi:nodetypes="ccccc"
           id="path8131"
           style="color:#000000;fill:#54370f;fill-opacity:1;fill-rule:evenodd;stroke:none;stroke-width:1px;marker:none;visibility:visible"
           d="m -226.46496,723.48127 65.63296,-4.51527 15.03316,-19.48566 -53.97217,-11.6611 -26.69395,35.66203 z" />
        <path
           style="fill:#3d290c;fill-opacity:1;fill-rule:evenodd;stroke:none"
           d="m -201.03125,687.12954 1.26172,0.69622 53.97266,11.6567 -55.23438,-12.35292 z"
           id="path8168"
           sodipodi:nodetypes="cccc" />
      </g>
      <path
         id="path8072"
         style="color:#000000;fill:#b26a00;fill-opacity:1;fill-rule:evenodd;stroke:none;stroke-width:1px;marker:none;visibility:visible;display:inline;overflow:visible;enable-background:accumulate"
         d="m 728.51476,786.69844 178.62102,-170.45457 0,-151.09737 -178.62102,26.69462 0,294.85732 z" />
      <path
         id="path8070"
         style="color:#000000;fill:#6a450f;fill-opacity:1;fill-rule:evenodd;stroke:none;stroke-width:1px;marker:none;visibility:visible;display:inline;overflow:visible;enable-background:accumulate"
         d="m 488.32262,682.2667 0,-202.27673 240.8565,11.5854 -0.5315,294.99021 -240.325,-104.29888 z"
         sodipodi:nodetypes="ccccc" />
      <g
         id="g8248"
         transform="matrix(3.5189614,0,0,3.5189614,1291.9353,-2064.8921)">
        <path
           style="color:#000000;fill:#69440e;fill-opacity:1;fill-rule:evenodd;stroke:none;stroke-width:1px;marker:none;visibility:visible"
           d="m -160.15532,726.55022 -2.31679,-0.0553 -25.89355,-23.85228 0.42591,-0.80222 27.78443,24.70975 z"
           id="path8147"
           sodipodi:nodetypes="ccccc" />
        <path
           sodipodi:nodetypes="ccccc"
           d="m -187.94894,701.81339 64.34028,4.38674 14.27663,12.77852 -50.75157,7.63535 -27.86534,-24.80061 z"
           style="color:#000000;fill:#a76607;fill-opacity:1;fill-rule:evenodd;stroke:none;stroke-width:1px;marker:none;visibility:visible"
           id="path8149" />
      </g>
    </g>
    <path
       sodipodi:nodetypes="csccccccccccccccccccccc"
       transform="translate(320.30844,424.46268)"
       id="path2966"
       d="m 253.90625,133.59375 c 0,0 2.83197,8.85228 7.40011,9.0448 2.10198,0.0886 -12.2277,-1.85805 2.1702,-4.16199 2.90926,1.20777 4.46756,5.61606 7.61719,5.66407 -4.99955,0.27973 -2.42218,-3.50163 -1.79973,-5.38826 4.1367,2.63552 12.66684,-0.50551 11.17473,0.31013 2.22348,0.0823 7.58894,-0.65644 9.76563,-0.19531 4.33845,0.9191 8.39843,1.75781 8.39843,1.75781 -5.22927,18.637 0.12822,35.15665 0.19533,52.73438 L 278.125,178.125 l 21.09375,12.5 -6.00236,126.79976 -23.62227,-50.81705 25.86055,48.86699 -4.82967,77.10342 -32.75746,-13.25002 12.03746,-197.48215 -10.1952,197.35993 -22.99105,-8.89338 13.67188,-131.05469 1.95312,28.71094 -4.29688,-28.90625 5.85938,-105.46875 z"
       style="fill:#999999;stroke:#c2c2c2;stroke-width:1px;stroke-linecap:butt;stroke-linejoin:miter;stroke-opacity:1;fill-opacity:1;opacity:0.4" />
    <path
       style="opacity:0.4;fill:#999999;fill-opacity:1;stroke:#c2c2c2;stroke-width:1px;stroke-linecap:butt;stroke-linejoin:miter;stroke-opacity:1"
       d="m 859.73696,506.22522 c -3.5646,-1.74016 1.45866,1.52821 1.45866,1.52821 -21.26486,-0.85236 -18.99879,-1.42709 -36.57285,-1.79236 l 7.27811,-6.07347 -6.04559,6.71959 -34.44637,-1.20372 -16.96176,-3.64063 23.38752,3.19056 -76.1601,-4.495 77.93501,0.0987 -74.2146,0.51078 -32.36825,-1.78477 21.07031,-6.17891 -16.41376,5.84045 -59.78699,-3.50664 c 0,0 -2.26276,1.2653 -3.31476,2.12136 -1.21892,-0.72161 -1.85181,-5.71437 -6.47821,-6.25884 1.88332,0.50947 6.78014,1.3943 8.80483,4.09055 1.16671,1.55369 -3.59296,-1.98606 -3.66109,-2.85062 -10.59021,1.38603 -7.73567,-6.31138 -8.86399,-4.27397 5.36301,-0.54901 -0.83155,-5.44313 -0.83155,-5.44313 l 6.62025,1.25421 c 8.36115,0.92093 14.65549,1.15292 25.08344,2.76278 l 5.07051,-1.17179 12.44708,1.86509 -2.48681,-1.98113 10.15542,1.77065 12.32895,0.79601 32.04272,3.7311 0.16309,-3.21426 1.79618,2.6509 35.33042,2.19949 0.86238,-1.78783 27.76539,3.19052 26.346,1.08958 3.89788,-0.79004 -5.95294,2.57001 4.53807,-0.45697 3.7421,-0.80033 c 1.10254,0.58325 1.37645,0.83639 2.479,0.90932 l 26.22368,0.98929 c 0.48181,0.9549 1.70323,2.74641 2.85386,2.54382 2.0797,-0.36617 2.86482,3.47076 3.35515,3.78403 1.60736,1.02693 -3.45771,-2.59884 -1.65284,1.15216 l 3.17645,0.34525 z"
       id="path3740"
       sodipodi:nodetypes="cccccccccccccccccscccccccccccccccccccccccsscc" />
    <path
       sodipodi:nodetypes="ccccccccccccccccccccccccccccccccccccccccccccccccccccccccccccccccccc"
       transform="translate(320.30844,424.46268)"
       id="path3742"
       d="m 259.77747,6.8714769 13.43723,2.5347603 -0.84155,0.7480378 13.89055,3.285993 4.59696,-0.289151 -2.2583,0.534999 4.89727,-0.46847 0.5682,1.635273 23.46918,5.985468 3.26895,0.0653 -2.1329,-0.172044 37.0559,8.434065 1.35715,0.700398 2.90042,0.09557 3.88363,2.393714 15.93805,2.257265 1.27267,0.503692 -0.45938,0.404179 11.62309,1.543863 0.83639,0.616177 0.97852,-0.132417 20.71546,2.829205 -0.92708,1.307555 37.95833,8.601838 2.40407,-0.09074 0.29486,3.025982 0.47331,-1.656321 -1.85846,2.230089 0.62378,-0.849666 1.33363,-2.185164 -8.44058,-1.885682 0.18447,2.18792 -1.77327,-2.911701 -20.42629,-3.53367 -1.33801,-1.68918 -16.93308,-2.146068 -1.45471,-1.109041 -36.76269,-8.07162 -3.3465,-1.274988 0.42581,0.637853 c -6.33362,-0.799395 -14.46262,-2.68551 -20.79624,-3.813759 l -5.06207,0.503104 -0.55596,-3.291686 -15.87202,-2.55656 -0.66845,0.501035 c -1.51344,-0.03073 -3.17291,0.0076 -4.88561,-0.02312 l 0.68361,2.812824 -3.75468,-4.212268 -0.47542,-1.08934 -49.72564,-10.5540252 -2.38132,-0.061271 3.32031,0.9765622 -1.17187,1.953125 -0.0872,3.360533 -4.60032,2.694155 -2.34375,1.171875 -2.32819,-1.592294 3.77831,2.874515 -6.05827,-0.415575 0.7019,3.820854 4.43736,-2.237121 -6.66467,-3.229597 5.29848,-6.666872 0.79479,4.073704 -1.45951,-3.049769 4.44133,-6.0423021 2e-5,0 z"
       style="fill:#999999;stroke:#c2c2c2;stroke-width:1px;stroke-linecap:butt;stroke-linejoin:miter;stroke-opacity:1;fill-opacity:1;opacity:0.40000000000000002" />
    <flowRoot
       style="fill:black;stroke:none;stroke-opacity:1;stroke-width:1px;stroke-linejoin:miter;stroke-linecap:butt;fill-opacity:1;font-family:Bitstream Vera Sans;font-style:normal;font-weight:normal;font-size:10;line-height:125%;letter-spacing:0px;word-spacing:0px"
       id="flowRoot3548"
       xml:space="preserve"><flowRegion
         id="flowRegion3550"><rect
           y="189.80919"
           x="-184.21509"
           height="183.17433"
           width="274.76151"
           id="rect3552" /></flowRegion><flowPara
         id="flowPara3554" /></flowRoot>    <g
       transform="matrix(1.0542322,0,0,1.0288119,441.48196,404.29274)"
       style="font-size:182.37113953px;font-style:normal;font-weight:normal;line-height:125%;letter-spacing:0px;word-spacing:0px;fill:#000000;fill-opacity:1;stroke:none;font-family:Sans"
       id="text3051">
      <path
         d="m 286.1245,362.88574 c 2.525,-2.79934 11.02754,-9.88436 17.80035,-15.07545 0,0 16.83192,-12.90102 16.83192,-12.90102 5.7397,-4.39926 11.58106,-8.39032 13.39248,-9.05809 0,0 0.13787,-3.96599 0.15362,-6.39037 0.0158,-2.42433 -0.53264,-4.43794 -1.66679,-3.85521 -6.42029,3.17417 -10.66954,4.46903 -12.89942,3.76761 0,0 -0.44673,-8.37204 -0.32892,-26.33948 0,0 0.49629,-75.69155 0.49629,-75.69155 0.13958,-21.28797 2.76551,-23.47209 11.71909,-27.15171 0,0 2.96613,-1.19961 2.96613,-1.19961 -0.19394,-4.80451 0.29602,-10.9659 -2.66073,-10.38447 -7.6992,1.51399 -13.94858,4.03357 -27.63052,6.78866 -7.36802,1.48368 -13.25907,2.10278 -16.05437,1.80167 0,0 -0.81041,3.60319 -0.83731,7.62637 -0.0442,6.60981 1.05927,6.05587 5.53334,5.81818 0,0 2.71079,-0.10545 2.71079,-0.10545 7.56074,-0.23365 9.63582,4.91143 9.541,19.24333 0,0 -0.47424,71.6843 -0.47424,71.6843 -0.1468,22.18989 -1.38646,40.03902 -1.38646,40.03902 -2.15326,3.97723 -8.17094,9.95864 -14.28547,15.79445 -2.6755,2.5178 -3.01989,6.7817 -3.03723,9.37409 -0.0193,2.88051 0.11645,6.21473 0.11645,6.21473"
         style="font-variant:normal;font-weight:bold;font-stretch:normal;font-family:Fertigo Pro;-inkscape-font-specification:Fertigo Pro Bold"
         id="path3238"
         inkscape:connector-curvature="0" />
      <path
         d="m 344.22819,303.69782 c -0.0542,8.39179 3.08562,13.14632 6.6844,10.3542 3.58973,-2.78509 6.55958,-11.89271 6.61043,-19.83245 0.0523,-8.15977 -2.8273,-13.09863 -6.41365,-10.77101 -3.59539,2.33349 -6.8255,11.62494 -6.88118,20.24926"
         style="font-variant:normal;font-weight:bold;font-stretch:normal;font-family:Fertigo Pro;-inkscape-font-specification:Fertigo Pro Bold"
         id="path3240"
         inkscape:connector-curvature="0" />
      <path
         d="m 365.83949,301.41308 c 1.38175,-1.69642 6.07643,-5.71531 9.86523,-8.61928 0,0 9.61219,-7.36738 9.61219,-7.36738 3.34341,-2.56259 6.7807,-4.82324 7.85335,-5.08962 0,0 0.0856,-3.03978 0.0973,-4.90738 0.0117,-1.86757 -0.31134,-3.49144 -0.98302,-3.18933 -3.77668,1.6033 -6.25187,2.03967 -7.54195,1.21612 0,0 -0.2496,-6.42806 -0.16361,-20.08488 0,0 0.36227,-57.53733 0.36227,-57.53733 0.1019,-16.18367 1.62485,-17.72742 6.86746,-20.15053 0,0 1.75527,-0.79637 1.75527,-0.79637 -0.11032,-3.70895 0.18619,-8.43752 -1.56381,-8.09339 -4.51378,0.8876 -8.13378,2.57889 -15.91869,4.14652 -4.11587,0.8288 -7.36848,1.06337 -8.89968,0.73384 0,0 -0.44645,2.63257 -0.46538,5.60526 -0.0311,4.88387 0.57229,4.52584 3.02843,4.55887 0,0 1.49737,0.0488 1.49737,0.0488 4.21371,0.18277 5.37458,4.14434 5.3065,14.89975 0,0 -0.3405,53.79101 -0.3405,53.79101 -0.10539,16.64945 -0.82033,29.89163 -0.82033,29.89163 -1.21048,2.6923 -4.56434,6.33812 -7.93646,9.82478 -1.46438,1.48772 -1.65657,4.59178 -1.66877,6.50609 -0.0136,2.12707 0.0569,4.61277 0.0569,4.61277"
         style="font-variant:normal;font-weight:bold;font-stretch:normal;font-family:Fertigo Pro;-inkscape-font-specification:Fertigo Pro Bold"
         id="path3242"
         inkscape:connector-curvature="0" />
      <path
         d="m 399.35142,293.57321 c 0,0 -0.006,0.90458 -0.006,0.90458 0,0 1.05535,-0.0231 1.92034,-0.77945 4.15109,-3.62959 6.72294,-8.79954 9.02223,-25.88285 2.30088,-17.04973 8.92673,-65.64009 13.36981,-92.6907 0.9896,-5.94127 1.69755,-13.63674 1.70525,-14.89175 -1.52469,1.09044 -4.99847,1.78995 -14.15405,3.63358 -11.56398,2.3286 -13.07151,0.80808 -13.07151,0.80808 -0.0696,11.14135 1.26874,19.6793 4.78904,18.63802 14.02733,-4.14919 16.14176,-6.56175 16.14176,-6.56175 0,0 0.1479,0.60713 0.1479,0.60713 -2.05577,18.65382 -10.34483,74.94259 -14.50984,94.60757 -2.34086,11.20544 -4.40623,18.81698 -5.35529,21.60754"
         style="font-variant:normal;font-weight:bold;font-stretch:normal;font-family:Fertigo Pro;-inkscape-font-specification:Fertigo Pro Bold"
         id="path3244"
         inkscape:connector-curvature="0" />
    </g>
  </g>
</svg>
