<?xml version="1.0" encoding="UTF-8" standalone="no"?>
<!-- Created with Inkscape (http://www.inkscape.org/) -->

<svg
   xmlns:dc="http://purl.org/dc/elements/1.1/"
   xmlns:cc="http://creativecommons.org/ns#"
   xmlns:rdf="http://www.w3.org/1999/02/22-rdf-syntax-ns#"
   xmlns:svg="http://www.w3.org/2000/svg"
   xmlns="http://www.w3.org/2000/svg"
   xmlns:xlink="http://www.w3.org/1999/xlink"
   xmlns:sodipodi="http://sodipodi.sourceforge.net/DTD/sodipodi-0.dtd"
   xmlns:inkscape="http://www.inkscape.org/namespaces/inkscape"
   width="411"
   height="88"
   id="svg3237"
   sodipodi:version="0.32"
   inkscape:version="0.48.4 r9939"
   version="1.0"
   sodipodi:docname="Horizontal.svg"
   inkscape:output_extension="org.inkscape.output.svg.inkscape"
   inkscape:export-filename="/home/janek/htdocs/customers/apf/logo/Powered by/Horizontal.png"
   inkscape:export-xdpi="90"
   inkscape:export-ydpi="90">
  <defs
     id="defs3239">
    <linearGradient
       inkscape:collect="always"
       xlink:href="#linearGradient3675"
       id="linearGradient4688"
       gradientUnits="userSpaceOnUse"
       x1="581.36542"
       y1="400.8349"
       x2="579.78546"
       y2="425.52637" />
    <linearGradient
       id="linearGradient3675">
      <stop
         id="stop3677"
         offset="0"
         style="stop-color:#0a437c;stop-opacity:1;" />
      <stop
         id="stop3679"
         offset="1"
         style="stop-color:#48b6f4;stop-opacity:1;" />
    </linearGradient>
    <linearGradient
       inkscape:collect="always"
       xlink:href="#linearGradient3675"
       id="linearGradient4686"
       gradientUnits="userSpaceOnUse"
       gradientTransform="matrix(0.7549857,0,0,0.7549857,-6.0234598,-340.06401)"
       x1="150.81639"
       y1="531.11377"
       x2="130.24326"
       y2="588.16626" />
    <filter
       id="filter5378"
       inkscape:collect="always"
       color-interpolation-filters="sRGB">
      <feGaussianBlur
         id="feGaussianBlur5380"
         stdDeviation="2.4321977"
         inkscape:collect="always" />
    </filter>
    <inkscape:perspective
       sodipodi:type="inkscape:persp3d"
       inkscape:vp_x="0 : 526.18109 : 1"
       inkscape:vp_y="0 : 1000 : 0"
       inkscape:vp_z="744.09448 : 526.18109 : 1"
       inkscape:persp3d-origin="372.04724 : 350.78739 : 1"
       id="perspective3245" />
    <linearGradient
       inkscape:collect="always"
       xlink:href="#linearGradient3675"
       id="linearGradient2959"
       gradientUnits="userSpaceOnUse"
       gradientTransform="matrix(0.7549857,0,0,0.7549857,-6.0234598,-340.06401)"
       x1="150.81639"
       y1="531.11377"
       x2="130.24326"
       y2="588.16626" />
    <linearGradient
       inkscape:collect="always"
       xlink:href="#linearGradient3675"
       id="linearGradient2963"
       gradientUnits="userSpaceOnUse"
       gradientTransform="matrix(0.86094394,0,0,0.86094394,-610.22919,-752.74338)"
       x1="150.81639"
       y1="531.11377"
       x2="130.24326"
       y2="588.16626" />
    <linearGradient
       inkscape:collect="always"
       xlink:href="#linearGradient3675"
       id="linearGradient5674"
       gradientUnits="userSpaceOnUse"
       x1="581.36542"
       y1="400.8349"
       x2="579.78546"
       y2="425.52637" />
    <linearGradient
       inkscape:collect="always"
       xlink:href="#linearGradient3675"
       id="linearGradient5676"
       gradientUnits="userSpaceOnUse"
       gradientTransform="matrix(0.86094394,0,0,0.86094394,-610.22919,-752.74338)"
       x1="150.81639"
       y1="531.11377"
       x2="130.24326"
       y2="588.16626" />
    <linearGradient
       inkscape:collect="always"
       xlink:href="#linearGradient3675"
       id="linearGradient8096"
       gradientUnits="userSpaceOnUse"
       gradientTransform="matrix(0.86094394,0,0,0.86094394,-610.22919,-752.74338)"
       x1="150.81639"
       y1="531.11377"
       x2="130.24326"
       y2="588.16626" />
    <linearGradient
       inkscape:collect="always"
       xlink:href="#linearGradient3675"
       id="linearGradient8098"
       gradientUnits="userSpaceOnUse"
       x1="581.36542"
       y1="400.8349"
       x2="579.78546"
       y2="425.52637" />
  </defs>
  <sodipodi:namedview
     id="base"
     pagecolor="#ffffff"
     bordercolor="#666666"
     borderopacity="1.0"
     inkscape:pageopacity="0.0"
     inkscape:pageshadow="2"
     inkscape:zoom="1.979899"
     inkscape:cx="211.35482"
     inkscape:cy="20.249331"
     inkscape:document-units="px"
     inkscape:current-layer="layer1"
     showgrid="false"
     showguides="true"
     inkscape:guide-bbox="true"
     inkscape:snap-global="false"
     inkscape:window-width="2560"
     inkscape:window-height="1389"
     inkscape:window-x="1278"
     inkscape:window-y="28"
     inkscape:window-maximized="1">
    <sodipodi:guide
       orientation="0,1"
       position="29.7995,76.266517"
       id="guide2944" />
    <sodipodi:guide
       orientation="0,1"
       position="11.616754,14.142136"
       id="guide2946" />
    <sodipodi:guide
       orientation="1,0"
       position="103.54064,-58.588847"
       id="guide5672" />
  </sodipodi:namedview>
  <metadata
     id="metadata3242">
    <rdf:RDF>
      <cc:Work
         rdf:about="">
        <dc:format>image/svg+xml</dc:format>
        <dc:type
           rdf:resource="http://purl.org/dc/dcmitype/StillImage" />
        <dc:title></dc:title>
      </cc:Work>
    </rdf:RDF>
  </metadata>
  <g
     inkscape:label="Ebene 1"
     inkscape:groupmode="layer"
     id="layer1"
     transform="translate(574.22502,308.08752)">
    <g
       id="g5636"
       transform="translate(-6.1652489,6)">
      <g
         transform="translate(-2.6784383,2.5056489)"
         id="g3738">
        <path
           transform="matrix(0.86094394,0,0,0.86094394,-668.86161,-768.56982)"
           sodipodi:nodetypes="csscssc"
           id="path5306"
           d="m 203.55,540.37697 c 12.98486,12.80009 17.36218,30.31893 4.18272,45.65946 -11.49469,13.37951 -29.4965,7.11458 -41.70982,2.99251 -9.32585,-3.14753 -22.06414,-1.26525 -27.37805,20.49281 11.75467,-18.41772 27.6506,-9.57544 34.43933,-5.24259 8.06048,5.14453 15.88015,9.79935 29.37087,6.29261 43.33677,-11.26485 28.38052,-63.71951 1.09495,-70.1948 z"
           style="opacity:0.35;fill:#8b8383;fill-opacity:1;fill-rule:evenodd;stroke:none;filter:url(#filter5378)"
           inkscape:connector-curvature="0" />
        <path
           style="fill:url(#linearGradient8096);fill-opacity:1;fill-rule:evenodd;stroke:none"
           d="m -494.62978,-304.34887 c 11.17924,11.02015 14.94787,26.1029 3.60109,39.31024 -9.89628,11.519 -25.39484,6.12524 -35.90983,2.57637 -8.02901,-2.70984 -18.99597,-1.0893 -23.57096,17.64318 10.12011,-15.85663 23.80562,-8.24393 29.65034,-4.51358 6.93962,4.42914 13.6719,8.43668 25.28667,5.41758 37.31053,-9.6984 24.43402,-54.85892 0.94269,-60.43379 z"
           id="path4537"
           sodipodi:nodetypes="csscssc"
           inkscape:connector-curvature="0" />
        <path
           id="path5289"
           d="m -494.6367,-304.33734 c 11.17923,11.02016 14.95198,26.10015 3.60519,39.30748 -9.89629,11.51901 -25.40252,6.1048 -35.91749,2.55593 -4.49109,-1.51577 -9.88556,-1.65521 -14.58224,1.77568 10.03273,2.8141 21.42016,4.41236 33.4961,4.41236 12.21086,0 23.70494,-1.64682 33.81894,-4.51997 7.00016,-16.8985 -4.17317,-39.67573 -20.4205,-43.53148 z"
           style="opacity:0.20538719;fill:#ffffff;fill-opacity:1;fill-rule:evenodd;stroke:none"
           inkscape:connector-curvature="0" />
      </g>
    </g>
    <g
       id="g5628"
       transform="matrix(0.99966379,0,0,0.99966379,-6.3214693,5.919411)"
       inkscape:export-filename="/home/janek/Localhost/customers/apf/logo/Exports/Powered by/powered-by-apf-v-spass.png"
       inkscape:export-xdpi="90"
       inkscape:export-ydpi="90">
      <g
         id="g5624">
        <path
           inkscape:connector-curvature="0"
           id="text3298"
           d="m -329.93833,-242.63002 c 0,2.16795 0.68284,2.73002 1.47948,2.73002 0.478,0 0.95598,-0.24088 1.525,-0.40147 -0.27313,-3.69357 -0.34141,-7.347 -0.36418,-10.96027 0.38695,0.12045 0.81941,0.16059 1.22911,0.16059 3.09552,0 6.39589,-3.09136 6.39589,-9.11348 0,-4.09505 -1.82089,-8.19009 -5.96343,-8.19009 l -3.23209,0 c -0.54626,0 -1.41119,-0.12044 -1.41119,-0.12044 0,0 0.11381,0.44163 0.22762,4.33593 0.0683,2.56943 0.11379,5.78124 0.11379,9.11348 l 0,12.44573 m 2.61754,-10.51865 0,-3.01106 c 0,-3.33225 0.091,-10.11717 0.091,-10.11717 l 0.7056,0 c 2.73135,0 4.00599,3.17166 4.00599,6.4236 0,3.37238 -1.38845,6.78492 -4.00599,6.78492 -0.25036,0 -0.5235,0 -0.79664,-0.0803 m 10.44704,12.8472 c 0.56903,0.16059 1.04701,0.40147 1.52499,0.40147 0.79665,0 1.47948,-0.56207 1.47948,-2.73002 0,-2.56944 -0.091,-5.01845 -0.091,-7.26671 l 0,-4.01474 c 1.06978,-0.0803 2.68582,-0.16059 4.1653,-0.16059 1.38843,0 2.89068,0.0401 3.91493,0.16059 -0.0228,3.81401 -0.11381,7.62803 -0.11381,10.67923 0,2.08767 0.31866,3.33224 1.45671,3.33224 0.70561,0 0.97873,-0.24088 1.57052,-0.40147 -0.20484,-1.76649 -0.29589,-10.96028 -0.29589,-15.85826 0,-3.37239 0.091,-6.66448 0.091,-10.15733 0,-1.56575 -0.77389,-2.48913 -1.79814,-2.48913 -0.36418,0 -0.86493,0.16058 -1.25186,0.36133 0,0 0.13657,0.36133 0.22761,4.25563 0.0455,2.24826 0.091,4.898 0.11381,7.74846 -1.09254,0.0803 -2.8224,0.1606 -4.39292,0.1606 -1.36566,0 -2.77686,-0.0401 -3.66455,-0.1606 0.0228,-3.9746 0.0455,-8.27038 0.0455,-9.87629 0,-1.56575 -0.7739,-2.48913 -1.79814,-2.48913 -0.36419,0 -0.86493,0.16058 -1.25188,0.36133 0,0 0.11381,0.36133 0.22762,4.25563 0.0455,1.92707 0.13656,10.35806 0.13656,12.76689 0,9.99672 -0.29589,11.12087 -0.29589,11.12087 m 18.36545,-2.32855 c 0,2.16795 0.68283,2.73002 1.47947,2.73002 0.47798,0 0.95597,-0.24088 1.52501,-0.40147 -0.27314,-3.69357 -0.34143,-7.347 -0.36418,-10.96027 0.38693,0.12045 0.8194,0.16059 1.22909,0.16059 3.09553,0 6.39591,-3.09136 6.39591,-9.11348 0,-4.09505 -1.82091,-8.19009 -5.96344,-8.19009 l -3.23209,0 c -0.54627,0 -1.4112,-0.12044 -1.4112,-0.12044 0,0 0.11381,0.44163 0.22761,4.33593 0.0683,2.56943 0.11382,5.78124 0.11382,9.11348 l 0,12.44573 m 2.61753,-10.51865 0,-3.01106 c 0,-3.33225 0.091,-10.11717 0.091,-10.11717 l 0.70561,0 c 2.73134,0 4.00596,3.17166 4.00596,6.4236 0,3.37238 -1.38844,6.78492 -4.00596,6.78492 -0.25038,0 -0.52352,0 -0.79665,-0.0803 m 15.82614,12.8472 c 0.56904,0.16059 1.04702,0.40147 1.525,0.40147 0.79665,0 1.47948,-0.56207 1.47948,-2.73002 0,-2.56944 -0.091,-5.01845 -0.091,-7.26671 l 0,-3.77386 c 0,0 2.32164,0.24089 3.50522,0.24089 1.18358,0 1.32014,-1.08399 1.36567,-2.97092 0,0 -0.4097,0.40148 -1.34291,0.40148 l -3.50522,0 c 0.0228,-4.05489 0.0455,-8.43098 0.0455,-10.11717 0,0 1.72985,0.64236 4.32463,0.64236 1.63881,0 1.70709,-1.36502 1.84366,-3.33224 0,0 -1.54777,0.40147 -5.03023,0.40147 l -4.18805,0 c 0,0 0.11379,0.32119 0.2276,4.21549 0.0455,1.92707 0.13657,10.35806 0.13657,12.76689 0,9.99672 -0.2959,11.12087 -0.2959,11.12087 m 10.99793,-2.68987 c 0,2.48912 0.5918,3.09134 1.43396,3.09134 0.47799,0 1.02426,-0.24088 1.59329,-0.40147 -0.0455,-0.0402 -0.52352,-1.48546 -0.52352,-9.39452 0,-4.45636 0.50076,-7.70832 2.27612,-7.70832 0.52352,0 1.09254,0.48177 1.82091,1.12414 l 0.11379,-0.0803 c 0.1821,-0.84308 0.27314,-1.96722 0.27314,-2.85047 0,-0.88324 -0.22761,-1.56575 -1.1153,-1.56575 -1.2291,0 -2.79962,1.56575 -3.43693,4.09505 l -0.091,-0.0401 c 0,0 0.15932,-0.88323 0.15932,-1.48546 0,-1.64604 -0.79664,-2.56944 -1.84365,-2.56944 -0.36418,0 -0.72836,0.1606 -1.11531,0.36133 0.091,0.16059 0.56903,2.28841 0.56903,10.43835 0,2.20811 -0.1138,4.57682 -0.1138,6.98568 m 7.99806,-2.08769 c 0,2.93077 1.11531,5.37977 3.02726,5.37977 1.43394,0 2.572,-1.40516 3.09551,-3.09136 l 0.0911,0.0803 c 0.0228,2.12781 1.00149,2.81032 1.9347,2.81032 1.95746,0 2.52649,-2.48914 2.52649,-2.48914 l -0.091,-0.12044 c 0,0 -0.40971,0.56207 -0.86492,0.56207 -1.11531,0 -1.13807,-2.89064 -1.13807,-4.45639 l 0,-0.48177 c 0,-2.2081 0.0683,-4.89799 0.0683,-7.0258 0,-3.65342 -0.43248,-7.06597 -3.66455,-7.06597 -2.00299,0 -3.84665,2.48916 -4.21083,4.89801 l 0.091,0.16058 c 0.84217,-1.32486 2.02576,-2.40885 3.14106,-2.40885 1.7526,0 2.18506,1.88693 2.18506,5.25932 l 0,0.36132 c -2.48096,0.0803 -6.19105,1.80666 -6.19105,7.62803 m 2.57203,-0.76281 c 0,-4.25562 2.68582,-4.97828 3.61902,-5.25931 0,2.04753 -0.0683,4.17534 -0.0683,5.78124 0,1.5256 -1.25186,2.77017 -2.02575,2.77017 -0.79663,0 -1.52499,-0.88324 -1.52499,-3.2921 m 9.67031,5.54037 c 0.54627,0.20073 1.13805,0.40147 1.61604,0.40147 0.79665,0 1.43396,-0.56207 1.43396,-2.73002 0,-3.81401 -0.091,-6.54405 -0.091,-10.15732 0,-3.65343 1.32014,-5.54036 2.27611,-5.54036 1.95746,0 2.00299,2.56945 2.00299,5.21918 0,4.09504 -0.0683,6.66449 -0.0683,10.11718 0,2.77015 0.84216,2.8906 1.66157,3.09134 0.36418,-0.72266 0.88769,-1.32487 0.88769,-4.17534 0,-0.24089 -0.0455,-7.10611 -0.0455,-7.1864 0,-1.92707 0.34142,-7.06596 2.41268,-7.06596 1.88918,0 1.9347,2.56945 1.9347,5.21918 0,4.09504 -0.0683,6.5039 -0.0683,9.95657 0,2.40885 1.04701,3.25195 2.04851,3.25195 1.95745,0 2.52648,-2.48914 2.52648,-2.48914 l -0.091,-0.12044 c 0,0 -0.4097,0.56207 -0.86494,0.56207 -1.11529,0 -1.13805,-2.40886 -1.13805,-4.21549 0,-3.45268 0.091,-6.10243 0.091,-9.03319 0,-2.81033 -0.31866,-5.58051 -3.32314,-5.58051 -1.4567,0 -3.09552,1.28472 -3.59627,3.25195 l -0.091,-0.0402 c -0.091,-1.76649 -0.95598,-3.2118 -3.09552,-3.2118 -1.45671,0 -3.09552,1.28472 -3.52799,3.25194 l -0.091,-0.0401 c 0,0 0.091,-0.48178 0.091,-1.0037 0,-1.24456 -0.72836,-2.20811 -1.77537,-2.20811 -0.36418,0 -0.72836,0.1606 -1.1153,0.36133 0,0 0.34141,0.36133 0.45523,4.25563 0.0455,1.92708 0.091,4.01476 0.091,6.02213 0,7.18638 -0.38694,9.7157 -0.54627,9.83614 m 19.6582,-9.51496 c 0,5.90168 2.25336,10.11717 5.30337,10.11717 3.82386,0 4.59776,-5.09873 4.59776,-5.09873 l -0.11382,-0.20074 c 0,0 -1.70708,2.28841 -3.5735,2.28841 -2.3444,0 -3.61903,-3.2921 -3.61903,-8.1098 l 0.0911,-0.0803 c 0,0 1.18357,1.12411 2.50372,1.12411 2.00298,0 4.39291,-1.44531 4.39291,-5.46006 0,-2.73002 -1.18359,-5.74109 -4.18806,-5.74109 -3.32313,0 -5.39441,5.62066 -5.39441,11.16101 m 2.61754,-2.93077 c 0,-1.52561 0.86494,-6.38344 2.48097,-6.38344 1.2974,0 1.77538,1.96721 1.77538,3.85415 0,2.48914 -1.11531,3.49284 -2.13955,3.49284 -0.95597,0 -2.1168,-0.64236 -2.1168,-0.96355 m 11.91941,9.55511 c 0.59178,3.37238 2.93619,3.49283 2.93619,3.49283 l 0.79665,-3.0512 c 0.56902,-2.16797 1.38843,-5.17904 1.6388,-6.94553 l 0.11381,0 c 0.47798,2.64974 0.8194,4.77756 1.1153,6.5039 0.59178,3.37238 3.07275,3.49283 3.07275,3.49283 l 3.43694,-16.86195 c 0.61455,-3.01105 1.18358,-3.61326 1.18358,-3.61326 l 0,-0.20075 c 0,0 -0.34141,-0.32117 -1.04701,-0.32117 -1.98022,0 -0.79664,1.56576 -3.8694,17.10282 l 0,0.0402 -0.11381,0 c -1.02425,-4.45636 -2.27611,-11.80336 -2.73133,-15.25604 -0.15934,-1.24457 -1.02427,-1.88692 -1.79815,-1.88692 -0.91044,0 -1.32015,0.36131 -1.32015,0.36131 0,0 1.18358,4.25564 1.18358,6.66449 0,2.16796 -0.4097,4.57681 -1.82089,10.11716 l -0.11381,0 c -1.00149,-4.45636 -2.48096,-11.80336 -2.95895,-15.25604 -0.18209,-1.24457 -1.02425,-1.88692 -1.79813,-1.88692 -0.79665,0 -1.25188,0.16057 -1.70709,0.32116 l 0,0.20075 c 0.43245,0.64236 0.68283,1.56575 0.91044,2.40885 0.84218,3.21179 2.25336,10.92012 2.89068,14.57353 m 15.15824,-6.66448 c 0,5.21917 1.95746,10.15731 5.78135,10.15731 3.91492,0 6.00895,-5.74109 6.00895,-11.72307 0,-4.85783 -1.95747,-9.55511 -5.78134,-9.55511 -3.93769,0 -6.00896,5.37978 -6.00896,11.12087 m 2.77686,-0.68251 c 0,-4.29578 0.95598,-8.59155 2.98172,-8.59155 2.18508,0 3.25486,4.21547 3.25486,8.43095 0,4.57682 -0.97873,9.15364 -3.00448,9.15364 -2.16232,0 -3.2321,-4.45637 -3.2321,-8.99304 m 11.78354,7.54774 c 0,2.48912 0.5918,3.09135 1.43396,3.09135 0.47799,0 1.02426,-0.24089 1.59328,-0.40148 -0.0455,-0.0402 -0.5235,-1.48546 -0.5235,-9.39451 0,-4.45637 0.50075,-7.70833 2.27612,-7.70833 0.5235,0 1.09254,0.48178 1.82089,1.12414 l 0.1138,-0.0803 c 0.1821,-0.84309 0.27314,-1.96723 0.27314,-2.85047 0,-0.88324 -0.22761,-1.56575 -1.11529,-1.56575 -1.22911,0 -2.79963,1.56575 -3.43695,4.09504 l -0.091,-0.0401 c 0,0 0.15934,-0.88324 0.15934,-1.48547 0,-1.64604 -0.79664,-2.56943 -1.84366,-2.56943 -0.36418,0 -0.72836,0.16059 -1.1153,0.36133 0.091,0.16058 0.56903,2.28841 0.56903,10.43835 0,2.20811 -0.11381,4.57681 -0.11381,6.98567 m 8.76983,2.68987 c 0.54626,0.16059 1.13805,0.40148 1.61604,0.40148 0.79664,0 1.43395,-0.56208 1.43395,-2.73003 0,-2.64973 -0.0683,-4.85785 -0.091,-7.90906 l 0.15932,0.0803 c 0.70559,0.36134 2.73134,10.43835 5.91791,10.43835 1.25186,0 1.79813,-0.40147 1.79813,-0.40147 l 0,-0.20074 c -1.86641,-2.36869 -4.77984,-9.27408 -5.84963,-11.80335 l 0,-0.1606 c 2.09404,-3.29209 4.48395,-5.82139 4.48395,-7.30684 0,-0.52192 -0.31865,-0.80294 -1.09253,-0.80294 -0.56902,0 -1.2291,0.32116 -1.2291,0.32116 -0.13657,1.56576 -0.79665,2.48916 -3.80113,7.78862 l -0.29589,0.52192 -0.11379,0 0,-3.2921 c 0,-4.25563 0.091,-8.47113 0.091,-12.52603 0,-2.48913 -1.41119,-2.93075 -2.93619,-2.9709 l -0.0683,0.16058 c 0,0 0.2959,0.80297 0.4097,4.49652 0.091,3.49283 0.13657,8.91276 0.13657,13.97133 0,3.8943 -0.18209,11.4019 -0.56902,11.92381"
           style="font-size:32.40315628px;font-style:normal;font-variant:normal;font-weight:normal;font-stretch:normal;text-align:start;line-height:125%;writing-mode:lr-tb;text-anchor:start;fill:#4f4f4f;fill-opacity:1;stroke:none;font-family:Fertigo Pro;-inkscape-font-specification:Fertigo Pro" />
        <path
           inkscape:connector-curvature="0"
           id="path3318"
           d="m -176.04233,-270.86153 -0.0875,0.17492 c 0,3e-5 0.29435,0.79607 0.40815,4.48963 0.0911,3.49279 0.14577,8.90591 0.14577,13.96449 0,0.39599 0.004,0.93978 0,1.39935 l 5.10184,0 c -0.24289,-0.5674 -0.5051,-1.21234 -0.67052,-1.60343 l 0,-0.14577 c 2.09402,-3.29209 4.46047,-5.83206 4.46047,-7.31751 2e-5,-0.52189 -0.30481,-0.78713 -1.07867,-0.78713 -0.56903,-2e-5 -1.22445,0.32068 -1.22445,0.32068 -0.13657,1.56577 -0.81463,2.48451 -3.8191,7.78396 l -0.29153,0.52476 -0.11662,0 0,-3.29433 c -2e-5,-4.25561 0.0875,-8.48107 0.0875,-12.53597 -3e-5,-2.48912 -1.39034,-2.9335 -2.91534,-2.97365 z m -139.64487,2.0699 c -0.36419,3e-5 -0.86666,0.14909 -1.25359,0.34983 0,10e-6 0.1194,0.3621 0.23322,4.2564 0.0455,1.92706 0.11661,10.36037 0.11661,12.7692 0,0.24501 3.5e-4,0.3486 0,0.58306 l 2.62381,0 0,-3.09025 c 1.06978,-0.0803 2.68946,-0.14578 4.16894,-0.14578 1.38843,0 2.88231,0.0253 3.90656,0.14578 -0.006,1.04736 -0.0159,2.0587 -0.0292,3.09025 l 2.71127,0 c -0.0161,-1.87321 -0.0583,-3.90321 -0.0583,-5.33507 -1e-5,-3.37239 0.0875,-6.65255 0.0875,-10.14538 -10e-6,-1.56575 -0.75411,-2.47804 -1.77836,-2.47804 -0.36416,3e-5 -0.86667,0.14909 -1.2536,0.34983 0,10e-6 0.11303,0.3621 0.20408,4.2564 0.0455,2.24825 0.0938,4.90434 0.11661,7.75481 -1.09254,0.0803 -2.80249,0.14577 -4.37301,0.14577 -1.3657,-2e-5 -2.78565,-0.0253 -3.67333,-0.14577 0.0227,-3.97457 0.0583,-8.27709 0.0583,-9.883 10e-6,-1.56575 -0.78326,-2.47804 -1.80751,-2.47804 z m 44.77965,0 c -2e-5,3e-5 -1.56108,0.37899 -5.04354,0.37899 l -4.16894,0 c -2e-5,1e-5 0.0903,0.33294 0.20407,4.22724 0.0455,1.92706 0.14577,10.36037 0.14577,12.7692 0,0.24499 3.5e-4,0.34862 0,0.58306 l 2.62381,0 0,-2.82788 c 2e-5,0 2.31484,0.23323 3.49841,0.23323 1.18358,3e-5 1.32468,-1.0867 1.3702,-2.97364 4e-5,1e-5 -0.40784,0.40814 -1.34105,0.40814 l -3.49841,0 c 0.0228,-4.05488 0.0292,-8.43003 0.0292,-10.11623 -3e-5,-2e-5 1.74907,0.64137 4.34385,0.64137 1.6388,10e-6 1.7001,-1.35627 1.83667,-3.32348 z m -59.38552,0.26237 c 0,0 0.11943,0.44956 0.23323,4.34386 0.0683,2.56942 0.11662,5.76364 0.11662,9.09587 l 0,4.25639 2.65296,0 c -0.001,-0.14501 10e-4,-0.29242 0,-0.4373 0.38696,0.12044 0.81475,0.17493 1.22445,0.17493 3.09551,0 6.38459,-3.1029 6.38459,-9.12502 -1e-5,-4.09507 -1.80476,-8.19211 -5.94729,-8.19211 l -3.23603,0 c -0.54626,1e-5 -1.42853,-0.11662 -1.42853,-0.11662 z m 31.45654,0 c 0,0 0.0903,0.44956 0.20408,4.34386 0.0683,2.56942 0.11661,5.76364 0.11661,9.09587 l 0,4.25639 2.65296,0 c -10e-4,-0.14501 0.001,-0.29242 0,-0.4373 0.38693,0.12044 0.81476,0.17493 1.22444,0.17493 3.09552,0 6.38461,-3.1029 6.38461,-9.12502 0,-4.09507 -1.80477,-8.19211 -5.9473,-8.19211 l -3.23603,0 c -0.54629,1e-5 -1.39937,-0.11662 -1.39937,-0.11662 z m -28.39542,2.24482 0.69968,0 c 2.73135,-3e-5 4.02317,3.19095 4.02317,6.44291 2e-5,3.37239 -1.40563,6.76359 -4.02317,6.76359 -0.25036,0 -0.514,0.022 -0.78714,-0.0583 l 0,-3.03196 c -2e-5,-3.33224 0.0875,-10.11623 0.0875,-10.11623 z m 31.42738,0 0.69968,0 c 2.73134,-3e-5 4.02318,3.19095 4.02318,6.44291 -2e-5,3.37239 -1.40565,6.76359 -4.02318,6.76359 -0.25039,0 -0.51401,0.022 -0.78714,-0.0583 l 0,-3.03196 c 0,-3.33224 0.0875,-10.11623 0.0875,-10.11623 z m 39.70695,5.30592 c -2.00297,0 -3.83391,2.48892 -4.19809,4.89777 l 0.0875,0.17492 c 0.84214,-1.32483 2.03327,-2.41973 3.14856,-2.41973 1.75258,3e-5 2.1865,1.87523 2.1865,5.24762 l 0,0.37899 c -1.3083,0.0423 -2.95964,0.54883 -4.22724,1.86581 l 3.46926,0 c 0.29436,-0.11794 0.56978,-0.2057 0.75798,-0.26237 0,0.093 2.8e-4,0.16903 0,0.26237 l 2.41974,0 c 0.0148,-1.06453 0.0291,-2.15436 0.0291,-3.09025 0,-3.65341 -0.44124,-7.05513 -3.67333,-7.05513 z m 32.33115,0 c -3.1212,0 -5.13065,4.9523 -5.36423,10.14538 l 2.5655,0 0.0875,-0.0583 c 0,0 0.0449,0.0462 0.0583,0.0583 l 5.21846,0 c 0.94041,-0.84961 1.60345,-2.25792 1.60345,-4.40215 -2e-5,-2.73006 -1.16446,-5.74323 -4.16894,-5.74323 z m 30.2904,0 c -3.71209,0 -5.75334,4.7878 -5.97646,10.14538 l 2.76958,0 c 0.0425,-4.196 0.99392,-8.30872 2.97365,-8.30872 2.15977,0 3.21155,4.14258 3.23603,8.30872 l 2.76958,0 c 0.005,-0.19617 0.0292,-0.38616 0.0292,-0.58306 0,-4.85781 -1.97767,-9.56232 -5.80153,-9.56232 z m -74.92429,0.20407 c -0.36419,-2e-5 -0.72089,0.1491 -1.10783,0.34984 0.0872,0.15388 0.48782,2.26009 0.52476,9.59147 l 2.44889,0 c 0.0864,-3.85204 0.62682,-6.55952 2.24482,-6.55952 0.52353,2e-5 1.1083,0.46547 1.83666,1.10784 l 0.0875,-0.0875 c 0.1821,-0.84307 0.29154,-1.94464 0.29154,-2.82788 0,-0.88326 -0.22015,-1.57429 -1.10784,-1.57429 -1.22911,-2e-5 -2.80278,1.55218 -3.4401,4.08148 l -0.0875,-0.0292 c -3e-5,-10e-6 0.14577,-0.8846 0.14577,-1.48682 -2e-5,-1.64606 -0.78965,-2.5655 -1.83667,-2.5655 z m 20.69893,0 c -0.36419,-2e-5 -0.75005,0.1491 -1.13698,0.34984 -2e-5,2e-5 0.35263,0.3621 0.46645,4.2564 0.0403,1.70369 0.0787,3.54679 0.0875,5.33507 l 2.41973,0 c -0.005,-0.65124 0,-1.24954 0,-1.95327 -1e-5,-3.65344 1.31801,-5.53915 2.27398,-5.53915 1.95747,3e-5 2.01158,2.56874 2.01158,5.21846 0,0.92053 -0.0238,1.48026 -0.0292,2.27396 l 2.44888,0 c -3.1e-4,-0.0519 0,-0.43241 0,-0.4373 3e-5,-1.92708 0.34847,-7.05512 2.41974,-7.05512 1.88921,3e-5 1.92413,2.56874 1.92413,5.21846 0,0.93666 0.005,1.48107 0,2.27396 l 2.47804,0 c 0.0229,-1.47025 0.0291,-2.89852 0.0291,-4.373 3e-5,-2.81034 -0.31902,-5.56831 -3.32349,-5.56831 -1.45673,-2e-5 -3.08512,1.2688 -3.58587,3.23603 l -0.0875,-0.0292 c -0.091,-1.7665 -0.95071,-3.20688 -3.09026,-3.20688 -1.45673,-3e-5 -3.0951,1.2688 -3.52757,3.23602 l -0.11661,-0.0292 c 1e-5,0 0.11661,-0.4693 0.11661,-0.99122 2e-5,-1.24457 -0.73134,-2.21566 -1.77835,-2.21566 z m 63.43784,0 c -0.36419,-2e-5 -0.7209,0.1491 -1.10784,0.34984 0.0872,0.15388 0.51698,2.26009 0.55392,9.59147 l 2.41973,0 c 0.0864,-3.85212 0.65596,-6.55952 2.27397,-6.55952 0.52347,2e-5 1.07916,0.46547 1.80751,1.10784 l 0.11662,-0.0875 c 0.1821,-0.84307 0.26238,-1.94464 0.26238,-2.82788 0,-0.88326 -0.22015,-1.57429 -1.10782,-1.57429 -1.22911,-2e-5 -2.8028,1.55218 -3.44012,4.08148 l -0.0874,-0.0292 c 2e-5,-10e-6 0.17491,-0.8846 0.17491,-1.48682 -1e-5,-1.64606 -0.8188,-2.5655 -1.86581,-2.5655 z m -32.44776,0.0875 c -0.79666,-2e-5 -1.26483,0.16009 -1.72005,0.32068 l 0,0.20408 c 0.43249,0.64234 0.67615,1.54748 0.90376,2.39058 0.41191,1.57092 0.95978,4.21675 1.48682,6.9385 l 2.53635,0 c -0.61331,-3.08525 -1.16895,-6.11306 -1.42852,-7.98803 -0.18208,-1.24454 -1.00448,-1.86581 -1.77836,-1.86581 z m 6.8219,0 c -0.91043,-2e-5 -1.34105,0.34983 -1.34105,0.34983 1e-5,2e-5 1.19529,4.26729 1.19529,6.67613 -1e-5,0.83171 -0.0792,1.76207 -0.23323,2.82788 l 3.46926,0 c -0.55325,-3.08622 -1.06464,-6.1125 -1.31191,-7.98803 -0.15935,-1.24454 -1.00448,-1.86581 -1.77836,-1.86581 z m 8.16296,0 c -1.20876,0.18289 -0.91829,1.83028 -2.21566,9.85384 l 1.25359,0 1.16614,-5.71407 c 0.61455,-3.01105 1.1953,-3.61501 1.1953,-3.61501 l 0,-0.20408 c 0,2e-5 -0.34393,-0.32068 -1.04953,-0.32068 -0.12376,0 -0.24898,-0.0153 -0.34984,0 z m -22.33152,1.54512 c 1.29736,0 1.77836,1.99047 1.77836,3.87741 1e-5,2.48912 -1.1331,3.46926 -2.15735,3.46926 -0.95599,-2e-5 -2.09905,-0.64088 -2.09905,-0.96207 0,-1.52562 0.862,-6.3846 2.47804,-6.3846 z"
           style="font-size:32.40315628px;font-style:normal;font-variant:normal;font-weight:normal;font-stretch:normal;text-align:start;line-height:125%;writing-mode:lr-tb;text-anchor:start;opacity:0.28956227;fill:#ffffff;fill-opacity:1;stroke:none;font-family:Fertigo Pro;-inkscape-font-specification:Fertigo Pro" />
      </g>
      <g
         transform="matrix(0.78379504,0,0,0.78379504,-562.86882,-319.18521)"
         id="g3981">
        <path
           transform="matrix(0.861242,0,0,1.7499754,-315.16686,-646.49752)"
           d="m 550.40625,396.9375 a 0.40664766,0.40664766 0 0 0 -0.25,0.15625 l -0.125,0.15625 A 0.40664766,0.40664766 0 0 0 550,397.71875 c 0,0 -0.01,-0.01 0.0312,0.0937 0.041,0.10329 0.11723,0.29719 0.1875,0.59375 0.14054,0.59312 0.31211,1.64275 0.40625,3.375 0.0696,1.35834 0.14466,3.0597 0.15625,4.84375 -0.53624,-0.0761 -1.07116,-0.15625 -1.65625,-0.15625 -3.83279,-10e-6 -6.74355,1.22302 -8.6875,3.3125 -1.94395,2.08948 -2.90625,5.01435 -2.90625,8.34375 0,2.66043 0.70958,4.9334 2.03125,6.5625 1.32167,1.6291 3.26438,2.59375 5.5625,2.59375 2.28025,-10e-6 3.87723,-0.79558 4.875,-1.59375 0.45612,-0.36488 0.76641,-0.70382 1,-1 0.18281,0.75179 0.49875,1.38397 1.03125,1.75 0.71108,0.48878 1.60382,0.65625 2.4375,0.65625 1.73414,10e-6 2.91629,-0.62961 3.625,-1.28125 0.70871,-0.65164 0.96875,-1.34375 0.96875,-1.34375 a 0.40664766,0.40664766 0 0 0 -0.15625,-0.5 L 558.75,423.875 a 0.40664766,0.40664766 0 0 0 -0.46875,0.0312 c 0,0 -0.61597,0.4375 -1.1875,0.4375 -0.5397,0 -0.79476,-0.18843 -1,-0.5625 -0.20524,-0.37407 -0.29444,-0.94856 -0.3125,-1.5625 -0.11399,-3.34395 -0.1875,-6.8078 -0.1875,-10.1875 0,-4.5537 0.1875,-8.20922 0.1875,-11.875 10e-6,-1.31473 -0.74369,-2.20899 -1.75,-2.65625 -1.00631,-0.44726 -2.26791,-0.54318 -3.5625,-0.5625 a 0.40664766,0.40664766 0 0 0 -0.0625,0 z M 522.25,398.78125 a 0.40664766,0.40664766 0 0 0 -0.28125,0.28125 L 514,421.21875 c -0.6959,1.95609 -1.29748,3.11221 -1.71875,3.78125 -0.21063,0.33452 -0.39401,0.53483 -0.5,0.65625 -0.10599,0.12142 -0.125,0.15625 -0.125,0.15625 A 0.40664766,0.40664766 0 0 0 511.5,426.125 l 0,0.1875 a 0.40664766,0.40664766 0 0 0 0.21875,0.375 c 0,0 0.75863,0.40625 1.5625,0.40625 0.7935,0 1.44902,-0.14872 1.96875,-0.53125 0.51973,-0.38253 0.86853,-0.96953 1.1875,-1.71875 0.61711,-1.4495 1.12716,-3.67744 2.1875,-6.9375 1.54606,-0.0699 3.34312,-0.125 5.1875,-0.125 1.19321,-10e-6 2.42198,0.0293 3.53125,0.0625 0.8543,2.62094 1.52594,5.01535 2,6.65625 0.003,0.01 -0.003,0.0218 0,0.0312 0.25595,0.89153 0.81559,1.55741 1.5,1.96875 0.69169,0.41572 1.51709,0.59375 2.40625,0.59375 1.40777,10e-6 2.875,-0.375 2.875,-0.375 a 0.40664766,0.40664766 0 0 0 0.3125,-0.40625 l 0,-0.1875 a 0.40664766,0.40664766 0 0 0 -0.21875,-0.375 c -0.15287,-0.0764 -0.23826,-0.14743 -0.46875,-0.5625 -0.23049,-0.41507 -0.56157,-1.1151 -1.09375,-2.3125 -1.87553,-4.16372 -5.3092,-14.44136 -6.75,-19.21875 -0.69624,-2.32748 -2.07259,-3.55444 -3.28125,-4.1875 -1.20866,-0.63306 -2.28125,-0.6875 -2.28125,-0.6875 a 0.40664766,0.40664766 0 0 0 -0.0937,0 z m 105.8125,3.65625 a 0.40664766,0.40664766 0 0 0 -0.3125,0.25 c -0.0831,0.21095 -0.39448,0.63685 -0.8125,1.09375 -0.41802,0.4569 -0.96039,0.97327 -1.53125,1.4375 -0.57086,0.46423 -1.17154,0.88603 -1.71875,1.1875 -0.54721,0.30147 -1.0354,0.46875 -1.3125,0.46875 a 0.40664766,0.40664766 0 0 0 -0.40625,0.40625 l 0,1.59375 a 0.40664766,0.40664766 0 0 0 0.28125,0.375 c 0.36803,0.11324 0.63161,0.2125 0.8125,0.3125 0.18089,0.1 0.28408,0.19475 0.375,0.375 0.18184,0.36049 0.28125,1.17571 0.28125,2.78125 3e-5,1.41621 -0.15625,4.29151 -0.15625,6.78125 -2e-5,2.17159 0.32746,4.08075 1.28125,5.5 0.95379,1.41925 2.55481,2.28125 4.875,2.28125 2.44821,-10e-6 4.04903,-1.18349 5,-2.34375 C 635.66972,423.77724 636,422.625 636,422.625 a 0.40664766,0.40664766 0 0 0 -0.125,-0.4375 l -0.1875,-0.15625 a 0.40664766,0.40664766 0 0 0 -0.5,0 c 0,0 -0.53697,0.41599 -1.28125,0.84375 -0.74428,0.42776 -1.69753,0.84375 -2.5,0.84375 -0.65818,0 -1.12997,-0.17009 -1.5,-0.46875 -0.37003,-0.29866 -0.63366,-0.7556 -0.84375,-1.34375 -0.42019,-1.17631 -0.53125,-2.87968 -0.53125,-4.75 0,-2.72077 0.11272,-6.5195 0.125,-6.96875 0.52544,0.0188 2.24059,0.0937 2.65625,0.0937 0.71835,-10e-6 1.36192,-0.0878 1.84375,-0.46875 0.48183,-0.38092 0.6875,-1.01206 0.6875,-1.875 0,-0.0903 0.003,-0.28832 0,-0.5 -0.003,-0.21168 -0.002,-0.41756 -0.0312,-0.59375 a 0.40664766,0.40664766 0 0 0 -0.65625,-0.25 c 0,0 0.0141,-0.0233 -0.0312,0 -0.0454,0.0233 -0.14707,0.0848 -0.28125,0.125 -0.26836,0.0804 -0.72151,0.15625 -1.46875,0.15625 l -2.625,0 0.65625,-3.6875 A 0.40664766,0.40664766 0 0 0 629.125,402.75 l -0.875,-0.28125 a 0.40664766,0.40664766 0 0 0 -0.1875,-0.0312 z m -105.28125,2.5 c 1.10085,2.8854 2.37703,6.51436 3.59375,10.09375 -1.08648,0.0289 -2.20828,0.0625 -3.34375,0.0625 -1.25402,0 -2.46157,-0.0327 -3.5625,-0.0625 0.8552,-2.70708 1.93438,-6.07132 3.3125,-10.09375 z m 65.8125,1.375 c -2.90659,-10e-6 -5.28739,1.40385 -6.90625,3.46875 -1.61886,2.0649 -2.5,4.78625 -2.5,7.5 -3e-5,5.77351 3.9398,10 9.25,10 3.29811,-10e-6 5.34285,-1.28107 6.53125,-2.5625 1.1884,-1.28143 1.5625,-2.59375 1.5625,-2.59375 a 0.40664766,0.40664766 0 0 0 -0.125,-0.375 l -0.1875,-0.1875 a 0.40664766,0.40664766 0 0 0 -0.53125,-0.0312 c 0,0 -2.78955,2.09375 -5.71875,2.09375 -1.85104,0 -3.20902,-0.71147 -4.15625,-1.96875 -0.87755,-1.16479 -1.36743,-2.8409 -1.4375,-4.84375 0.57988,0.27778 1.98469,0.90625 3.875,0.90625 1.72852,10e-6 3.61822,-0.35394 5.125,-1.21875 1.50678,-0.86481 2.625,-2.29936 2.625,-4.34375 -2e-5,-1.39704 -0.54117,-2.88412 -1.75,-4 -1.20883,-1.11588 -3.06865,-1.84375 -5.65625,-1.84375 z m 22.96875,0 c -1.4324,-10e-6 -2.91592,0.31339 -4.1875,0.90625 -0.83546,0.38953 -1.57168,0.9137 -2.125,1.53125 -0.0804,-0.62371 -0.40283,-1.17841 -0.9375,-1.5625 -0.60794,-0.43672 -1.42924,-0.6875 -2.375,-0.6875 -0.67702,0 -1.31484,0.18267 -1.96875,0.375 a 0.40664766,0.40664766 0 0 0 -0.15625,0.6875 c -0.006,-0.007 0.0161,-0.0246 0.0312,0 0.0165,0.0127 0.0312,0.0312 0.0312,0.0312 0.033,0.0573 0.057,0.17925 0.125,0.40625 0.14879,0.49671 0.34342,1.48738 0.4375,3.3125 0.0761,1.82572 0.15625,3.76566 0.15625,5.65625 0,3.39186 -0.15386,5.68022 -0.34375,7.125 -0.095,0.72239 -0.19189,1.2421 -0.28125,1.5625 -0.0447,0.1602 -0.098,0.25568 -0.125,0.3125 a 0.40664766,0.40664766 0 0 0 0.15625,0.75 c 0.9181,0.19127 1.91969,0.375 2.78125,0.375 0.72063,10e-6 1.42962,-0.13973 1.96875,-0.625 0.53913,-0.48527 0.84375,-1.277 0.84375,-2.375 -3e-5,-3.62555 -0.15625,-6.21375 -0.15625,-9.625 -3e-5,-3.38562 2.34775,-5.03125 4.15625,-5.03125 1.53214,0 2.15808,0.51076 2.53125,1.34375 0.37317,0.83299 0.40625,2.06634 0.40625,3.375 0,3.87138 -0.125,6.15568 -0.125,9.4375 10e-6,1.24594 0.50552,2.15979 1.25,2.71875 0.74448,0.55896 1.69117,0.78125 2.59375,0.78125 1.73412,10e-6 2.91628,-0.62961 3.625,-1.28125 0.70872,-0.65164 0.96875,-1.34375 0.96875,-1.34375 a 0.40664766,0.40664766 0 0 0 -0.15625,-0.5 l -0.15625,-0.0937 a 0.40664766,0.40664766 0 0 0 -0.46875,0.0312 c 0,0 -0.61597,0.4375 -1.1875,0.4375 -0.3828,0 -0.61943,-0.10619 -0.8125,-0.28125 -0.19307,-0.17506 -0.32965,-0.43322 -0.4375,-0.78125 -0.21569,-0.69607 -0.25,-1.67869 -0.25,-2.53125 -2e-5,-3.2585 0.15625,-5.77031 0.15625,-8.5625 -10e-6,-1.41488 -0.11523,-2.8901 -0.96875,-4.03125 -0.85352,-1.14115 -2.41669,-1.84375 -5,-1.84375 z m 72.59375,0 c -2.90661,-10e-6 -5.2795,1.40413 -6.90625,3.46875 -1.62675,2.06462 -2.53125,4.78545 -2.53125,7.5 -10e-6,5.77502 3.97104,10 9.28125,10 3.29809,-10e-6 5.34284,-1.28107 6.53125,-2.5625 1.18841,-1.28143 1.5625,-2.59375 1.5625,-2.59375 a 0.40664766,0.40664766 0 0 0 -0.125,-0.375 l -0.1875,-0.1875 a 0.40664766,0.40664766 0 0 0 -0.53125,-0.0312 c 0,0 -2.78955,2.09375 -5.71875,2.09375 -1.85107,0 -3.23267,-0.71103 -4.1875,-1.96875 -0.88926,-1.17134 -1.37084,-2.85878 -1.4375,-4.875 0.54946,0.2661 1.98236,0.9375 3.90625,0.9375 1.72853,10e-6 3.61822,-0.35394 5.125,-1.21875 1.50678,-0.86481 2.625,-2.29936 2.625,-4.34375 -10e-6,-1.39704 -0.54116,-2.88412 -1.75,-4 -1.20884,-1.11588 -3.06865,-1.84375 -5.65625,-1.84375 z M 639.4375,406.5 c -0.69399,0 -1.31137,0.19642 -1.9375,0.34375 A 0.40664766,0.40664766 0 0 0 637.25,407.5 c 0.16015,0.22687 0.32601,0.69994 0.4375,1.3125 0.11149,0.61256 0.1934,1.35149 0.25,2.125 0.1131,1.80927 0.125,3.77775 0.125,4.6875 0,1.92694 -0.0937,3.5739 -0.0937,5.1875 -2e-5,1.60277 0.23659,3.20173 1.1875,4.4375 0.95091,1.23577 2.60297,2.03125 5.15625,2.03125 2.41628,-10e-6 4.05689,-0.87553 5.0625,-1.75 0.42692,-0.37125 0.68067,-0.71988 0.90625,-1.03125 0.13616,0.81213 0.47699,1.49863 1.03125,1.90625 0.68046,0.50043 1.5343,0.6875 2.34375,0.6875 1.73411,10e-6 2.91628,-0.62961 3.625,-1.28125 0.70872,-0.65164 0.96875,-1.34375 0.96875,-1.34375 a 0.40664766,0.40664766 0 0 0 -0.15625,-0.5 l -0.15625,-0.0937 a 0.40664766,0.40664766 0 0 0 -0.46875,0.0312 c 0,0 -0.64722,0.4375 -1.21875,0.4375 -0.35422,0 -0.55911,-0.0951 -0.75,-0.28125 -0.19089,-0.18618 -0.35885,-0.48438 -0.46875,-0.84375 -0.2198,-0.71874 -0.25,-1.68445 -0.25,-2.4375 3e-5,-4.28081 0.28125,-7.80915 0.28125,-11.40625 2e-5,-0.90689 -0.44823,-1.67112 -1.125,-2.15625 -0.67677,-0.48513 -1.56839,-0.71875 -2.53125,-0.71875 -0.67704,0 -1.34269,0.18168 -2,0.375 a 0.40664766,0.40664766 0 0 0 -0.25,0.5625 c 0,0 0.0934,0.14998 0.21875,0.65625 0.12534,0.50627 0.27473,1.31615 0.40625,2.59375 0.11226,1.30991 0.1875,3.41044 0.1875,5.875 0,1.59356 -0.24185,3.51521 -0.90625,5 -0.6644,1.48479 -1.66904,2.5 -3.28125,2.5 -1.35883,0 -1.9532,-0.53848 -2.34375,-1.5 -0.39055,-0.96152 -0.46875,-2.37669 -0.46875,-3.90625 2e-5,-3.79512 0.125,-6.10652 0.125,-9.3125 0,-0.89781 -0.47309,-1.64655 -1.15625,-2.125 -0.68316,-0.47845 -1.57158,-0.71875 -2.5,-0.71875 z m 23.15625,0 c -0.67704,0 -1.31484,0.18268 -1.96875,0.375 a 0.40664766,0.40664766 0 0 0 -0.15625,0.65625 c -0.0767,-0.0767 -0.027,-0.032 0,0.0312 0.027,0.0632 0.0497,0.15985 0.0937,0.3125 0.088,0.30529 0.20683,0.80285 0.3125,1.53125 0.21134,1.4568 0.40625,3.87145 0.40625,7.71875 -2e-5,2.06791 -0.1875,4.32032 -0.1875,6.625 2e-5,1.23664 0.25347,2.07994 0.78125,2.625 0.52778,0.54506 1.27175,0.71875 2.03125,0.71875 0.87448,10e-6 1.78911,-0.22626 2.71875,-0.375 a 0.40664766,0.40664766 0 0 0 0.25,-0.65625 0.40664766,0.40664766 0 0 0 0,-0.0312 c -0.016,-0.0307 -0.056,-0.10798 -0.0937,-0.21875 -0.0755,-0.22154 -0.17929,-0.59257 -0.28125,-1.21875 -0.20391,-1.25236 -0.40625,-3.45498 -0.40625,-7.1875 0,-2.0841 0.21086,-3.85842 0.75,-5.0625 0.53914,-1.20408 1.31384,-1.84375 2.65625,-1.84375 0.73432,-10e-6 1.62895,0.42386 2.84375,1.03125 a 0.40664766,0.40664766 0 0 0 0.3125,0 l 0.1875,-0.0625 a 0.40664766,0.40664766 0 0 0 0.25,-0.21875 c 0.33047,-0.86754 0.5,-1.98484 0.5,-2.875 -10e-6,-0.48183 -0.11233,-0.98444 -0.5,-1.34375 -0.38767,-0.35931 -0.98174,-0.53125 -1.78125,-0.53125 -1.80874,0 -3.89551,1.02269 -5.25,2.75 -0.0307,-0.85017 -0.41186,-1.5685 -1.03125,-2.03125 -0.64475,-0.48169 -1.49458,-0.71875 -2.4375,-0.71875 z m -100.90625,0.0625 c -1.36403,0 -2.20922,0.16059 -2.96875,0.3125 a 0.40664766,0.40664766 0 0 0 -0.3125,0.40625 l 0,0.1875 a 0.40664766,0.40664766 0 0 0 0.15625,0.3125 c 0.62988,0.53044 1.03059,1.33721 1.40625,2.125 0.003,0.006 -0.003,0.0251 0,0.0312 1.37769,2.98765 3.78336,10.30376 4.84375,13.75 0.54143,1.74928 1.93034,2.67101 3.15625,3.125 1.22591,0.45399 2.34375,0.46875 2.34375,0.46875 A 0.40664766,0.40664766 0 0 0 570.6875,427 l 5.75,-15.90625 c 0.50343,-1.39846 0.97323,-2.23534 1.3125,-2.71875 0.33927,-0.48341 0.5,-0.5625 0.5,-0.5625 a 0.40664766,0.40664766 0 0 0 0.1875,-0.34375 l 0,-0.1875 a 0.40664766,0.40664766 0 0 0 -0.21875,-0.34375 c 0,0 -0.17652,-0.13163 -0.5,-0.21875 -0.32349,-0.0871 -0.81196,-0.15625 -1.4375,-0.15625 -0.85803,0 -1.50194,0.11397 -1.96875,0.59375 -0.46681,0.47978 -0.68459,1.19196 -0.96875,2.3125 -0.54382,2.14448 -1.31857,5.99674 -3.625,12.75 -1.65208,-4.25849 -3.88102,-10.70324 -4.625,-13.75 -0.18703,-0.72478 -0.7491,-1.21448 -1.375,-1.5 -0.6259,-0.28552 -1.34113,-0.40625 -2.03125,-0.40625 z m 26.40625,2.3125 c 0.96736,0 1.56153,0.37188 1.96875,0.96875 0.40722,0.59687 0.59375,1.44799 0.59375,2.28125 -10e-6,1.0729 -0.4133,1.75633 -1,2.21875 -0.5867,0.46242 -1.37588,0.6875 -2.15625,0.6875 -0.74513,0 -1.60052,-0.15708 -2.25,-0.34375 -0.32474,-0.0933 -0.60979,-0.19632 -0.78125,-0.28125 -0.0328,-0.0162 -0.0382,-0.0171 -0.0625,-0.0312 0.0287,-0.639 0.33634,-2.04004 0.96875,-3.25 0.33077,-0.63285 0.75854,-1.21932 1.21875,-1.625 0.46021,-0.40568 0.93985,-0.625 1.5,-0.625 z m 95.5625,0 c 0.96737,0 1.56153,0.37188 1.96875,0.96875 0.40722,0.59687 0.59375,1.44798 0.59375,2.28125 0,1.0711 -0.40526,1.75534 -1,2.21875 -0.59474,0.46341 -1.40713,0.6875 -2.1875,0.6875 -0.74513,0 -1.60052,-0.15708 -2.25,-0.34375 -0.32474,-0.0933 -0.60979,-0.19632 -0.78125,-0.28125 -0.0328,-0.0162 -0.0382,-0.0171 -0.0625,-0.0312 0.0293,-0.63652 0.36032,-2.03976 1,-3.25 0.33457,-0.63299 0.72417,-1.21889 1.1875,-1.625 0.46333,-0.40611 0.9711,-0.625 1.53125,-0.625 z m -135.0625,0.1875 c 0.66536,0 1.29888,0.0614 1.6875,0.21875 0.38862,0.1573 0.53125,0.30468 0.53125,0.75 l 0,3.53125 c -10e-6,1.27516 -0.0868,3.3645 -0.125,4.625 -0.0367,1.26678 -0.31409,2.75862 -0.9375,3.90625 -0.62341,1.14763 -1.52497,1.9375 -3.03125,1.9375 -0.78476,0 -1.38097,-0.23462 -1.875,-0.65625 -0.49403,-0.42163 -0.86463,-1.04497 -1.15625,-1.75 -0.58324,-1.41006 -0.78125,-3.19349 -0.78125,-4.46875 0,-2.06467 0.50435,-4.11849 1.46875,-5.625 0.9644,-1.50651 2.34512,-2.46875 4.21875,-2.46875 z"
           id="path3312"
           style="font-size:38.04027176px;font-style:normal;font-variant:normal;font-weight:normal;font-stretch:normal;text-align:start;line-height:100%;writing-mode:lr-tb;text-anchor:start;fill:url(#linearGradient8098);fill-opacity:1;stroke:none;font-family:Fertigo Pro;-inkscape-font-specification:Fertigo Pro"
           inkscape:original="M 550.46875 397.34375 L 550.34375 397.5 C 550.34375 397.5 550.84105 398.2503 551.03125 401.75 C 551.1073 403.23358 551.1875 405.0844 551.1875 407.0625 C 550.54079 406.94838 549.84776 406.875 549.125 406.875 C 541.63107 406.87499 537.9375 411.62012 537.9375 418.125 C 537.9375 423.29847 540.75037 426.875 545.125 426.875 C 549.4996 426.87499 551.0625 423.875 551.0625 423.875 L 551.21875 423.9375 C 551.25678 426.06775 552.9091 426.6875 554.46875 426.6875 C 557.74023 426.68751 558.6875 424.3125 558.6875 424.3125 L 558.53125 424.21875 C 558.53126 424.21876 557.85456 424.75 557.09375 424.75 C 555.76232 424.75001 555.41304 423.51212 555.375 422.21875 C 555.26089 418.87121 555.1875 415.41683 555.1875 412.03125 C 555.1875 407.46642 555.375 403.80811 555.375 400.15625 C 555.37501 397.79775 553.01744 397.38179 550.46875 397.34375 z M 522.34375 399.1875 L 514.375 421.34375 C 512.96754 425.29992 511.90625 426.125 511.90625 426.125 L 511.90625 426.3125 C 511.90625 426.3125 512.63457 426.6875 513.28125 426.6875 C 516.2484 426.68751 516.06133 424.42332 518.34375 417.5 C 519.94142 417.42391 521.87245 417.375 523.8125 417.375 C 525.10585 417.37499 526.44575 417.39946 527.625 417.4375 C 528.53797 420.21443 529.25547 422.69444 529.75 424.40625 C 530.20649 426.04198 531.57623 426.6875 533.25 426.6875 C 534.58142 426.68751 536.03125 426.3125 536.03125 426.3125 L 536.03125 426.125 C 535.57475 425.89677 535.34638 425.42778 534.28125 423.03125 C 532.37925 418.80877 528.97678 408.57432 527.53125 403.78125 C 526.19987 399.33053 522.34375 399.1875 522.34375 399.1875 z M 628.125 402.84375 C 627.63048 404.09908 624.01073 407.28125 622.375 407.28125 L 622.375 408.875 C 623.85857 409.33149 624.125 409.48533 624.125 412.71875 C 624.12503 414.16428 623.96875 417.02739 623.96875 419.5 C 623.96872 423.7605 625.26805 426.875 629.71875 426.875 C 634.35963 426.87499 635.625 422.5 635.625 422.5 L 635.4375 422.34375 C 635.43752 422.34376 633.27023 424.125 631.40625 424.125 C 628.47713 424.12501 628.125 420.92223 628.125 417.15625 C 628.125 414.2652 628.25 409.78125 628.25 409.78125 C 628.24998 409.78126 630.89406 409.875 631.3125 409.875 C 632.68195 409.87499 633.4375 409.53519 633.4375 407.9375 C 633.43751 407.74729 633.44429 407.1345 633.40625 406.90625 C 633.40625 406.90625 632.93465 407.28125 631.375 407.28125 L 628.25 407.28125 L 629 403.125 L 628.125 402.84375 z M 522.6875 403.96875 L 522.875 403.96875 C 524.09226 407.08806 525.56805 411.40524 526.9375 415.4375 C 525.68214 415.47554 524.36266 415.5 523.03125 415.5 C 521.58569 415.5 520.15479 415.47555 518.9375 415.4375 C 519.88849 412.43232 521.05177 408.68574 522.6875 403.96875 z M 588.59375 406.71875 C 583.03989 406.71874 579.59375 412.0317 579.59375 417.28125 C 579.59372 422.87315 583.34011 426.875 588.4375 426.875 C 594.82827 426.87499 596.125 422.03125 596.125 422.03125 L 595.9375 421.84375 C 595.9375 421.84375 593.08805 424.03125 589.96875 424.03125 C 586.05063 424.03125 583.9375 420.90858 583.9375 416.34375 L 584.0625 416.25 C 584.06252 416.25 586.04367 417.3125 588.25 417.3125 C 591.59754 417.31251 595.59375 415.96027 595.59375 412.15625 C 595.59372 409.56951 593.61506 406.71875 588.59375 406.71875 z M 611.5625 406.71875 C 608.82359 406.71874 605.78118 407.99065 604.90625 409.96875 L 604.75 409.9375 C 604.74999 409.93749 604.90625 409.49452 604.90625 409 C 604.90624 407.82075 603.68735 406.90625 601.9375 406.90625 C 601.32887 406.90625 600.74043 407.0598 600.09375 407.25 C 600.09374 407.24999 600.65355 407.59134 600.84375 411.28125 C 600.91982 413.10719 601 415.06673 601 416.96875 C 600.99999 423.77794 600.36003 426.19838 600.09375 426.3125 C 601.0067 426.5027 601.9824 426.6875 602.78125 426.6875 C 604.11265 426.68751 605.1875 426.14792 605.1875 424.09375 C 605.18747 420.47992 605.03125 417.89237 605.03125 414.46875 C 605.03122 410.89298 607.53957 409.03125 609.59375 409.03125 C 612.8652 409.03126 612.9375 411.53147 612.9375 414.15625 C 612.9375 418.03636 612.8125 420.32229 612.8125 423.59375 C 612.81251 425.87617 614.57623 426.6875 616.25 426.6875 C 619.52145 426.68751 620.46875 424.3125 620.46875 424.3125 L 620.3125 424.21875 C 620.31249 424.21876 619.63581 424.75 618.875 424.75 C 617.01104 424.75001 616.96875 422.46181 616.96875 420.75 C 616.96873 417.47855 617.125 414.96444 617.125 412.1875 C 617.12498 409.41056 616.58381 406.71875 611.5625 406.71875 z M 684.15625 406.71875 C 678.60234 406.71874 675.125 412.0317 675.125 417.28125 C 675.12499 422.87315 678.9026 426.875 684 426.875 C 690.39072 426.87499 691.6875 422.03125 691.6875 422.03125 L 691.5 421.84375 C 691.50001 421.84375 688.65055 424.03125 685.53125 424.03125 C 681.61308 424.03125 679.46875 420.90858 679.46875 416.34375 L 679.625 416.25 C 679.62503 416.25 681.60617 417.3125 683.8125 417.3125 C 687.16005 417.31251 691.15625 415.96027 691.15625 412.15625 C 691.15624 409.56951 689.17756 406.71875 684.15625 406.71875 z M 639.4375 406.90625 C 638.82884 406.90625 638.24043 407.09784 637.59375 407.25 C 638.05025 407.89667 638.22963 409.3466 638.34375 410.90625 C 638.45789 412.73218 638.46875 414.71203 638.46875 415.625 C 638.46875 417.56504 638.375 419.21481 638.375 420.8125 C 638.37497 423.93181 639.36727 426.875 644.3125 426.875 C 648.9534 426.87499 650.40625 423.59375 650.40625 423.59375 L 650.59375 423.625 C 650.59378 423.62499 650.5625 423.85463 650.5625 423.96875 C 650.56251 425.94685 652.17268 426.6875 653.65625 426.6875 C 656.92768 426.68751 657.875 424.3125 657.875 424.3125 L 657.71875 424.21875 C 657.71872 424.21876 657.01081 424.75 656.25 424.75 C 654.46211 424.75001 654.375 422.30286 654.375 420.78125 C 654.37503 416.48271 654.65625 412.95078 654.65625 409.375 C 654.65628 407.81534 653.19414 406.90625 651.40625 406.90625 C 650.79759 406.90625 650.17794 407.0598 649.53125 407.25 C 649.53127 407.24999 649.92122 408.06952 650.1875 410.65625 C 650.3016 411.98766 650.375 414.08989 650.375 416.5625 C 650.375 419.83396 649.35703 424.46875 645.78125 424.46875 C 642.81408 424.46875 642.5625 421.73751 642.5625 418.65625 C 642.56252 414.85222 642.6875 412.53913 642.6875 409.34375 C 642.6875 407.82215 641.14931 406.90625 639.4375 406.90625 z M 662.59375 406.90625 C 661.98509 406.90625 661.39669 407.0598 660.75 407.25 C 660.90218 407.40215 661.6875 409.40283 661.6875 417.125 C 661.68748 419.2172 661.5 421.46759 661.5 423.75 C 661.50003 426.1085 662.49877 426.6875 663.90625 426.6875 C 664.70511 426.68751 665.6115 426.46466 666.5625 426.3125 C 666.48641 426.27446 665.6875 424.90018 665.6875 417.40625 C 665.68751 413.18379 666.53287 410.09375 669.5 410.09375 C 670.37494 410.09374 671.31396 410.54761 672.53125 411.15625 L 672.71875 411.09375 C 673.02305 410.29492 673.1875 409.21189 673.1875 408.375 C 673.18748 407.53811 672.79607 406.90625 671.3125 406.90625 C 669.25835 406.90625 666.62762 408.38472 665.5625 410.78125 L 665.40625 410.75 C 665.40627 410.75 665.6875 409.91435 665.6875 409.34375 C 665.68751 407.78411 664.34361 406.90625 662.59375 406.90625 z M 561.6875 406.96875 C 560.35612 406.96875 559.5733 407.12909 558.8125 407.28125 L 558.8125 407.46875 C 559.53523 408.07738 559.96335 408.95116 560.34375 409.75 C 561.75122 412.79321 564.12237 420.10084 565.1875 423.5625 C 566.17652 426.75787 570.3125 426.875 570.3125 426.875 L 576.0625 410.96875 C 577.08956 408.11574 578.03125 407.46875 578.03125 407.46875 L 578.03125 407.28125 C 578.03124 407.28126 577.4605 406.96875 576.28125 406.96875 C 572.97175 406.96875 574.94793 408.46593 569.8125 423.1875 L 569.625 423.1875 C 567.95124 418.96502 565.48635 411.83396 564.6875 408.5625 C 564.3832 407.38326 562.98087 406.96875 561.6875 406.96875 z M 588.09375 408.46875 C 590.26204 408.46875 591.0625 410.33711 591.0625 412.125 C 591.06248 414.4835 589.21181 415.4375 587.5 415.4375 C 585.90231 415.43749 583.96875 414.80432 583.96875 414.5 C 583.96872 413.05447 585.39289 408.46875 588.09375 408.46875 z M 683.65625 408.46875 C 685.82456 408.46875 686.625 410.33711 686.625 412.125 C 686.62499 414.4835 684.74306 415.4375 683.03125 415.4375 C 681.43357 415.43749 679.5 414.80432 679.5 414.5 C 679.49998 413.05447 680.9554 408.46875 683.65625 408.46875 z M 548.59375 408.65625 C 549.96322 408.65626 551.21875 408.852 551.21875 410.03125 L 551.21875 413.5625 C 551.21874 414.85588 551.13179 416.93218 551.09375 418.1875 C 551.01767 420.81227 550.02825 424.4375 546.71875 424.4375 C 543.21905 424.43751 542.5 419.78102 542.5 417.15625 C 542.50001 412.89575 544.56149 408.65625 548.59375 408.65625 z "
           inkscape:radius="0.406607"
           sodipodi:type="inkscape:offset" />
        <path
           inkscape:connector-curvature="0"
           id="path3316"
           d="m 158.84769,48.151595 c -0.0861,0.03319 -0.13357,0.117714 -0.18597,0.260375 l -0.11159,0.26036 c -0.0937,0.234208 -0.11472,0.560928 -0.0372,0.8183 0,0 0.002,0.0052 0.0372,0.185973 0.0353,0.180774 0.0883,0.522488 0.14878,1.041462 0.12103,1.037949 0.29088,2.845452 0.37196,5.876846 0.06,2.377045 0.1016,5.358763 0.11158,8.480506 -0.46184,-0.133263 -0.90951,-0.260368 -1.41342,-0.260368 -3.30094,-1.5e-5 -5.80202,2.145917 -7.47623,5.802459 -1.67424,3.656526 -2.52928,8.754151 -2.52928,14.580513 0,0.690769 0.0478,1.34909 0.0744,2.008538 l 4.72378,0 c -0.0971,-1.314796 -0.14878,-2.607685 -0.14878,-3.68232 -1e-5,-3.613139 0.43406,-7.220371 1.26465,-9.856724 0.83058,-2.636337 2.03147,-4.31464 3.64511,-4.31464 0.57306,8e-6 1.11593,0.09668 1.45062,0.371945 0.3347,0.275246 0.44634,0.559724 0.44634,1.339028 l 0,6.174395 c -1e-5,2.231487 -0.0787,5.865519 -0.11157,8.071371 -0.009,0.60103 -0.0336,1.257872 -0.0744,1.896945 l 4.38904,0 c -0.0535,-4.215236 -0.0744,-8.451891 -0.0744,-12.646364 0,-7.968879 0.14877,-14.377101 0.14877,-20.792122 0,-2.300713 -0.65832,-3.866707 -1.525,-4.649403 -0.86666,-0.782726 -1.93505,-0.933262 -3.05001,-0.967075 -0.0179,-0.0028 -0.0565,-0.0028 -0.0744,0 z m -24.21407,3.19879 c -0.11744,0.06718 -0.22732,0.244971 -0.26037,0.483538 l -6.2488,35.372636 3.01282,0 c 0.12687,-0.841145 0.22204,-1.443943 0.37195,-2.380482 1.33155,-0.122234 2.87497,-0.223178 4.46342,-0.223178 1.02765,0 2.05746,0.05347 3.01281,0.111593 0.14134,0.881109 0.24263,1.645762 0.37195,2.492067 l 4.6866,0 c -1.60081,-8.582311 -3.57501,-20.814425 -4.53781,-27.301273 -0.59963,-4.073031 -1.78588,-6.219627 -2.82684,-7.327458 -1.04097,-1.107808 -1.97134,-1.227443 -1.97134,-1.227443 -0.0268,-0.0063 -0.0476,-0.0063 -0.0744,0 z m 91.12825,6.397581 c -0.12126,0.03983 -0.25183,0.214694 -0.29757,0.446333 -0.0716,0.36917 -0.30949,1.097403 -0.66951,1.89696 -0.36001,0.799587 -0.84738,1.71688 -1.33902,2.52928 -0.49163,0.812378 -1.01654,1.555368 -1.48781,2.082933 -0.47127,0.52758 -0.87721,0.818285 -1.11586,0.818285 -0.19314,3.89e-4 -0.37177,0.314243 -0.37195,0.706715 l 0,2.78964 c 0.004,0.300775 0.11945,0.576837 0.26036,0.66951 0.31696,0.198154 0.55092,0.345732 0.70672,0.520735 0.1558,0.174966 0.25645,0.354086 0.33474,0.66951 0.15661,0.630842 0.22318,2.062917 0.22318,4.872581 5e-5,2.401749 -0.14097,7.196322 -0.14877,11.456111 l 4.35183,0 c -0.0405,-1.16487 -0.0744,-2.386832 -0.0744,-3.68232 0,-4.761293 0.10099,-11.413845 0.11157,-12.200032 0.45254,0.03282 1.94813,0.148791 2.30611,0.148791 0.61867,7e-6 1.18443,-0.151702 1.59939,-0.818301 0.41497,-0.666621 0.55793,-1.763056 0.55793,-3.273177 -1e-5,-0.158006 0.003,-0.485047 0,-0.85549 -0.003,-0.370444 0.0253,-0.733127 0,-1.041463 -0.0204,-0.249513 -0.10683,-0.467889 -0.22317,-0.557933 -0.10906,-0.08439 -0.24005,-0.06067 -0.33476,0.07439 -0.002,-0.0051 -0.0176,0.01684 -0.0372,0.0372 -0.0391,0.04073 -0.1448,0.152808 -0.26036,0.223178 -0.23111,0.140733 -0.62109,0.26036 -1.26464,0.26036 l -2.23171,0 0.55793,-6.434771 c 0.0206,-0.340502 -0.0994,-0.677879 -0.26037,-0.781095 l -0.7439,-0.483537 c -0.051,-0.04392 -0.0936,-0.08235 -0.14878,-0.07439 z m -90.68192,4.389036 c 0.9481,5.049368 2.03931,11.403874 3.08721,17.667711 -0.93574,0.05066 -1.88611,0.111585 -2.86403,0.111585 -1.08001,-1.5e-5 -2.13905,-0.05947 -3.0872,-0.111585 0.73653,-4.737312 1.67714,-10.628564 2.86402,-17.667711 z m 56.68551,2.41768 c -2.50328,-8e-6 -4.55701,2.44929 -5.95124,6.062826 -1.39423,3.613504 -2.15733,8.380903 -2.15733,13.129908 0,1.197411 0.0572,2.345595 0.14879,3.459143 l 4.64939,0 c -0.16895,-1.309239 -0.30778,-2.710916 -0.33474,-4.277443 0.4994,0.486137 1.71954,1.562198 3.34756,1.562198 1.48869,0 3.09134,-0.606724 4.38903,-2.12013 1.29771,-1.51343 2.26891,-4.010185 2.26891,-7.587819 -3e-5,-2.4448 -0.4467,-5.077129 -1.48781,-7.0299 -1.0411,-1.95278 -2.64402,-3.198783 -4.87256,-3.198783 z m 19.78784,0 c -1.23365,-8e-6 -2.5128,0.524714 -3.60794,1.562197 -0.71952,0.681706 -1.38321,1.59736 -1.85975,2.678056 -0.0693,-1.091443 -0.32062,-2.043098 -0.78111,-2.715253 -0.52358,-0.764257 -1.2312,-1.227435 -2.04574,-1.227435 -0.58307,-2.3e-5 -1.1478,0.332933 -1.71097,0.66951 -0.1198,0.07488 -0.19539,0.272388 -0.22317,0.520735 -0.0278,0.248324 -0.0177,0.496785 0.0744,0.669518 -0.003,-0.0058 0.0314,0.0039 0.0372,0 0.0143,0.02213 0.0372,0.07439 0.0372,0.07439 0.0284,0.100289 0.053,0.309464 0.11158,0.706708 0.12817,0.869218 0.29094,2.608531 0.37195,5.80245 0.0655,3.194957 0.14879,6.585451 0.14879,9.893929 0,1.586856 -0.0574,2.697576 -0.0744,4.017075 l 4.31464,0 c -0.0341,-2.707745 -0.0744,-5.38237 -0.0744,-8.406111 -2e-5,-5.924737 2.01319,-8.778063 3.57075,-8.778063 1.31954,3.1e-5 1.87312,0.885591 2.19451,2.343293 0.3214,1.457694 0.33476,3.623917 0.33476,5.914035 -2e-5,3.515244 -0.009,6.275264 -0.0372,8.926846 l 4.24025,0 c 0.0311,-4.430494 0.11159,-8.314153 0.11159,-12.385996 0,-2.476038 -0.12041,-5.070109 -0.85549,-7.067098 -0.73509,-1.996998 -2.05259,-3.198783 -4.27745,-3.198783 z m 62.48794,0 c -2.50329,-8e-6 -4.51301,2.449793 -5.91403,6.062826 -1.40104,3.613024 -2.19452,8.379508 -2.19452,13.129908 0,1.197723 0.0565,2.34542 0.14878,3.459143 l 4.6494,0 c -0.16845,-1.319781 -0.30904,-2.771872 -0.33476,-4.35183 0.47322,0.465701 1.69064,1.636585 3.34757,1.636585 1.48868,0 3.12854,-0.606724 4.42623,-2.12013 1.29772,-1.51343 2.2689,-4.010185 2.2689,-7.587819 0,-2.4448 -0.48389,-5.077129 -1.52499,-7.0299 -1.04111,-1.95278 -2.64403,-3.198783 -4.87258,-3.198783 z m -38.49703,0.297565 c -0.59767,-2.3e-5 -1.13453,0.374498 -1.67379,0.63232 -0.12281,0.04149 -0.21605,0.209968 -0.26036,0.44634 -0.0443,0.23638 -0.0409,0.472531 0.0372,0.66951 0.13793,0.397061 0.27593,1.23415 0.37196,2.30611 0.096,1.07196 0.17442,2.365901 0.22316,3.719518 0.0974,3.166151 0.11159,6.628099 0.11159,8.220139 -1e-5,2.363179 -0.0135,4.329915 -0.0372,6.360375 l 4.31464,0 c -0.003,-0.370817 -0.0372,-0.698033 -0.0372,-1.07866 0,-6.641369 0.11159,-10.681106 0.11159,-16.291502 2e-5,-1.571131 -0.41591,-2.88223 -1.00427,-3.719518 -0.58835,-0.837234 -1.35773,-1.264632 -2.15732,-1.264632 z m 10.30307,0 c -0.5831,-2.3e-5 -1.14487,0.33121 -1.71098,0.66951 -0.0974,0.05995 -0.18184,0.220151 -0.22318,0.40915 -0.0413,0.188976 -0.0434,0.408014 0,0.595123 0,-8e-6 0.078,0.2299 0.18599,1.115857 0.10796,0.885972 0.22148,2.302048 0.33475,4.537818 0.0967,2.292337 0.18598,5.990154 0.18598,10.303064 0,1.487535 -0.081,3.112717 -0.22318,4.72379 l 4.35185,0 c 0.0457,-6.310311 0.26036,-11.771459 0.26036,-17.295759 1e-5,-1.587047 -0.38421,-2.944948 -0.96707,-3.793921 -0.58288,-0.848927 -1.36526,-1.264632 -2.19452,-1.264632 z m 9.63355,0 c -0.5831,-2.3e-5 -1.1106,0.332964 -1.67378,0.66951 -0.10911,0.08317 -0.19618,0.290408 -0.22316,0.520735 -0.027,0.230289 -0.005,0.458185 0.0744,0.632312 0.004,0.01454 -0.003,0.02061 0,0.03721 0.0233,0.110647 0.0365,0.290788 0.0744,0.557932 0.0758,0.534219 0.16936,1.403369 0.26036,2.678048 0.18204,2.549343 0.37196,6.76919 0.37196,13.501861 -1e-5,1.202243 -0.0134,2.491679 -0.0372,3.756708 l 4.20305,0 c -0.0108,-1.028405 -0.0372,-2.031984 -0.0372,-3.23598 -10e-6,-3.647128 0.20519,-6.782545 0.66951,-8.889656 0.46432,-2.107066 1.11277,-3.198783 2.26892,-3.198783 0.63243,-3e-5 1.40863,0.722456 2.45487,1.785375 0.0861,0.07286 0.17424,0.07283 0.26038,0 l 0.14877,-0.111592 c 0.0953,-0.05951 0.18149,-0.187894 0.22317,-0.371945 0.28463,-1.518155 0.44634,-3.463602 0.44634,-5.021363 10e-6,-0.843173 -0.11246,-1.751707 -0.44634,-2.380483 -0.33386,-0.628798 -0.83642,-0.929885 -1.525,-0.929885 -1.55776,-2.3e-5 -3.37126,1.812625 -4.53781,4.835375 -0.0264,-1.487779 -0.32205,-2.760941 -0.85549,-3.570743 -0.55531,-0.842897 -1.30805,-1.264632 -2.12014,-1.264632 z m -86.88799,0.111585 c -1.17477,8e-6 -1.91234,0.292092 -2.56647,0.557925 -0.16118,0.07781 -0.26469,0.37023 -0.26037,0.706715 l 0,0.334755 c 0.002,0.214122 0.0285,0.426087 0.11159,0.557925 0.54825,0.938156 0.90105,2.364033 1.22744,3.756715 0.81413,3.576818 1.95015,10.234866 2.93843,16.328692 l 4.50061,0 c -1.22624,-6.812897 -2.50699,-14.686138 -3.01281,-18.895154 -0.16107,-1.268322 -0.6512,-2.141207 -1.19025,-2.640858 -0.53906,-0.499628 -1.15381,-0.706715 -1.74817,-0.706715 z m 12.57198,0 c -0.73897,8e-6 -1.30894,0.201865 -1.71099,1.041462 -0.40202,0.839605 -0.57356,2.093361 -0.81828,4.054281 -0.39232,3.143467 -0.97633,8.582624 -2.30611,17.146984 l 2.41769,0 2.52927,-14.282956 c 0.43356,-2.447294 0.86087,-3.915034 1.15305,-4.760988 0.29219,-0.84594 0.40915,-1.004265 0.40915,-1.004265 0.10092,-0.131175 0.18633,-0.351685 0.18597,-0.595123 l 0,-0.334755 c -0.005,-0.254597 -0.11189,-0.477615 -0.22316,-0.59513 -2e-5,3.8e-5 -0.13056,-0.219488 -0.40915,-0.371945 -0.27862,-0.152464 -0.68869,-0.297565 -1.22744,-0.297565 z m 10.15429,4.05428 c 0.83312,-3.8e-5 1.36026,0.666469 1.71098,1.710973 0.35073,1.044481 0.48354,2.521711 0.48354,3.979893 0,1.877546 -0.35019,3.059078 -0.85549,3.8683 -0.50529,0.809222 -1.18768,1.227435 -1.85976,1.227435 -0.64176,1.6e-5 -1.3748,-0.268455 -1.93416,-0.595122 -0.27967,-0.163364 -0.52184,-0.372098 -0.66951,-0.520728 -0.0282,-0.02845 -0.0163,-0.01238 -0.0372,-0.0372 0.0247,-1.118244 0.27363,-3.573457 0.81829,-5.690866 0.28487,-1.107457 0.64512,-2.116898 1.04146,-2.826838 0.39636,-0.709931 0.81942,-1.11585 1.30184,-1.11585 z m 82.31299,0 c 0.83314,-3.8e-5 1.32307,0.666469 1.67378,1.710973 0.35071,1.044481 0.52074,2.521688 0.52074,3.979893 -10e-6,1.874398 -0.34328,3.057348 -0.85549,3.8683 -0.5122,0.810968 -1.22488,1.227435 -1.89696,1.227435 -0.64173,1.6e-5 -1.3748,-0.268455 -1.93415,-0.595122 -0.27969,-0.163364 -0.52184,-0.372098 -0.66951,-0.520728 -0.0282,-0.02845 -0.0163,-0.01238 -0.0372,-0.0372 0.0253,-1.113906 0.30456,-3.572977 0.85548,-5.690866 0.28816,-1.107694 0.60524,-2.116144 1.00427,-2.826838 0.39902,-0.710686 0.85661,-1.11585 1.33903,-1.11585 z"
           style="font-size:38.04027176px;font-style:normal;font-variant:normal;font-weight:normal;font-stretch:normal;text-align:start;line-height:100%;writing-mode:lr-tb;text-anchor:start;opacity:0.28956227;fill:#ffffff;fill-opacity:1;stroke:none;font-family:Fertigo Pro;-inkscape-font-specification:Fertigo Pro" />
      </g>
    </g>
    <text
       xml:space="preserve"
       style="font-size:16.58625031px;font-style:normal;font-weight:normal;line-height:125%;letter-spacing:0px;word-spacing:0px;fill:#4f4f4f;fill-opacity:1;stroke:none;font-family:Bitstream Vera Sans"
       x="-547.48743"
       y="-242.70721"
       id="text4672"
       sodipodi:linespacing="125%"
       transform="scale(0.86216188,1.159875)"
       inkscape:export-filename="/home/janek/Localhost/customers/apf/logo/Exports/Powered by/powered-by-apf-v-spass.png"
       inkscape:export-xdpi="90"
       inkscape:export-ydpi="90"><tspan
         sodipodi:role="line"
         id="tspan4674"
         x="-547.48743"
         y="-242.70721"
         style="font-style:normal;font-variant:normal;font-weight:normal;font-stretch:normal;fill:#4f4f4f;fill-opacity:1;font-family:Fertigo Pro;-inkscape-font-specification:Fertigo Pro">Powered by</tspan></text>
  </g>
</svg>
